<svg width="475" height="455" viewBox="0 0 475 455" fill="none" xmlns="http://www.w3.org/2000/svg">
<path fill-rule="evenodd" clip-rule="evenodd" d="M319.95 34.1444C319.22 33.8006 318.473 33.4926 317.712 33.2205C316.955 32.9484 316.184 32.7122 315.406 32.5138C315.065 32.4269 314.72 32.3495 314.377 32.2777C314.303 32.2607 314.23 32.2455 314.154 32.2304C313.813 32.1624 313.468 32.0982 313.124 32.0434C313.095 32.0377 313.065 32.0339 313.037 32.0301C312.698 31.9791 312.359 31.9338 312.022 31.896C311.976 31.8903 311.934 31.8847 311.889 31.879C311.525 31.8412 311.16 31.8091 310.794 31.7864C310.772 31.7845 310.753 31.7845 310.73 31.7826C309.969 31.7392 309.209 31.7297 308.454 31.7581C308.446 31.7581 308.439 31.7581 308.431 31.7599C306.467 31.8355 304.526 32.1624 302.674 32.7595C302.655 32.7651 302.636 32.7708 302.619 32.7765C302.362 32.8596 302.106 32.9484 301.852 33.0429C301.828 33.0523 301.801 33.0618 301.775 33.0712C300.962 33.3773 300.167 33.7363 299.396 34.152C299.356 34.1728 299.317 34.1955 299.277 34.2181C299.072 34.3315 298.866 34.4486 298.665 34.5696C298.605 34.6055 298.544 34.6414 298.485 34.6773C298.298 34.7925 298.112 34.9116 297.929 35.0344L297.756 35.1477C297.544 35.2932 297.334 35.4425 297.126 35.5974L297.059 35.6447C296.828 35.8185 296.601 35.998 296.376 36.1851C296.33 36.2228 296.289 36.2606 296.243 36.2984C296.071 36.4439 295.9 36.5932 295.73 36.7462C295.66 36.8105 295.592 36.8747 295.524 36.9408C295.378 37.075 295.238 37.211 295.098 37.3509C295.026 37.4227 294.954 37.4945 294.882 37.5681C294.74 37.7136 294.601 37.8629 294.465 38.0141C294.404 38.0821 294.342 38.1501 294.279 38.2181C294.084 38.4392 293.891 38.6659 293.706 38.8983C290.507 42.8794 290.505 47.0891 291.562 51.3158C291.651 51.6673 291.744 52.0206 291.846 52.372C291.967 52.7915 292.098 53.2091 292.234 53.6266C292.443 54.2653 292.662 54.9039 292.893 55.5407C293.886 57.7929 294.656 59.9507 295.132 62.0536C295.183 62.2879 295.232 62.5203 295.279 62.7527C295.414 63.4499 295.518 64.1415 295.584 64.8273C295.607 65.056 295.624 65.2846 295.637 65.5132C295.707 66.6544 295.677 67.7843 295.529 68.9123C295.383 70.0385 295.124 71.1608 294.738 72.2869C294.582 72.7385 294.406 73.1901 294.211 73.6417C293.624 74.9983 292.846 76.3625 291.863 77.7475C291.609 78.1046 291.348 78.4579 291.081 78.8055C289.212 81.2448 287.059 83.4687 285.014 85.7588C284.743 86.0611 284.536 86.3596 284.377 86.66C284.29 86.8206 284.214 86.9831 284.158 87.1475C284.158 87.1513 284.158 87.1532 284.156 87.1569C284.116 87.2703 284.086 87.3856 284.061 87.5008C284.059 87.5159 284.057 87.5311 284.055 87.5462C284.034 87.6501 284.017 87.7578 284.01 87.8636V87.8806C283.991 88.1187 284.002 88.3624 284.036 88.6118C284.072 88.8461 284.129 89.0861 284.209 89.3317V89.3336C284.248 89.4564 284.294 89.5792 284.343 89.7058C284.394 89.8343 284.451 89.9628 284.512 90.0969C284.646 90.3841 284.79 90.6713 284.94 90.9585C285.089 91.2457 285.246 91.531 285.411 91.8145C285.741 92.3832 286.099 92.9444 286.485 93.4942C286.871 94.0421 287.284 94.575 287.723 95.0889C287.943 95.3477 288.17 95.599 288.401 95.8447C288.865 96.3378 289.354 96.8045 289.863 97.2429C290.246 97.5698 290.642 97.8796 291.051 98.1706C291.323 98.3633 291.6 98.5485 291.882 98.7223C292.022 98.8092 292.164 98.8943 292.308 98.9774C292.509 99.0908 292.71 99.1985 292.914 99.3005C293.096 99.395 293.281 99.4838 293.469 99.5688C293.721 99.6841 293.978 99.7899 294.238 99.8881C294.802 100.1 295.38 100.274 295.974 100.398C297.582 100.738 299.529 100.903 301.218 100.527C301.371 100.493 301.527 100.453 301.676 100.408C301.822 100.366 301.964 100.319 302.104 100.268C302.174 100.241 302.242 100.215 302.313 100.187C302.589 100.071 302.856 99.9354 303.104 99.7785C303.314 99.6463 303.511 99.4989 303.697 99.3345C303.797 99.2457 303.894 99.1512 303.987 99.0511C304.127 98.8999 304.255 98.7374 304.373 98.5617C304.611 98.2065 304.807 97.8003 304.947 97.3355C305.744 94.6789 304.918 91.8466 305.191 89.139C305.204 89.0086 305.217 88.8801 305.235 88.7498C305.278 88.4437 305.325 88.1414 305.38 87.8409C305.538 86.9378 305.733 86.0573 305.967 85.1976C306.35 83.5726 306.876 81.9874 307.53 80.4569C307.717 80.0205 307.916 79.5878 308.124 79.1608C308.643 78.0932 309.226 77.054 309.868 76.0545C312.179 72.4532 315.243 69.3356 318.809 66.987C324.158 63.3951 332.89 61.4282 332.998 53.8515C333.138 45.3924 327.603 37.4264 319.95 34.1444" fill="white" fill-opacity="0.136965"/>
<path fill-rule="evenodd" clip-rule="evenodd" d="M92.1932 136.847C91.7895 136.49 91.4446 136.014 91.1508 135.399C89.4924 131.935 87.98 128.371 85.9464 125.11C80.7021 116.696 73.5361 114.511 63.9611 114.693C62.3293 114.614 60.7088 114.49 59.1376 114.251C54.424 113.53 50.1748 111.751 47.5025 106.847C43.0486 98.6709 44.9078 89.2863 50.1938 82.273C51.2494 80.871 52.4435 79.5621 53.7531 78.3783C60.288 72.0499 70.659 69.8322 79.1385 73.5466C86.7443 76.8531 85.0537 86.4901 86.4278 93.3971C87.9705 101.554 92.6443 109.139 99.4048 114.035C100.432 114.834 101.524 115.581 102.684 116.273C105.364 117.875 108.769 118.172 111.229 120.191C114.514 122.886 112.602 127.549 110.545 130.53C107.274 135.272 100.868 137.507 95.3204 137.735C93.9937 137.79 92.9779 137.541 92.1932 136.847" fill="#383075"/>
<path fill-rule="evenodd" clip-rule="evenodd" d="M53.994 79.3611C52.6898 80.5418 51.499 81.8455 50.4443 83.2457C48.3804 85.9835 46.8456 89.0847 46.0007 92.3335C47.6376 89.2228 49.6864 86.3847 52.5461 84.099C60.0045 77.5845 73.2351 74.1673 79.0358 82.4718C82.7253 87.7848 82.4834 95.4138 82.9162 102.505C83.1808 105.597 83.9841 109.361 87.1047 111.548C87.8399 112.091 88.6375 112.636 89.4692 113.188C90.3235 113.991 91.6976 114.503 92.7939 115.19C93.342 115.533 93.8221 115.919 94.1302 116.407C94.3248 116.906 94.6896 117.945 94.425 117.97C87.1822 123.48 86.4431 132.662 93.6293 137.879C95.9295 139.536 99.0368 138.439 101.704 137.634C102.397 137.366 103.087 137.061 103.758 136.724C105.098 136.051 106.361 135.262 107.397 134.425C108.034 133.905 108.633 133.343 109.19 132.743C110.865 130.946 112.154 128.806 112.891 126.405C113.248 124.496 112.755 122.129 111.062 121.218C108.55 120.115 106.055 119.213 103.747 118.057C102.978 117.673 102.231 117.26 101.511 116.802C100.789 116.343 100.095 115.841 99.4357 115.275C98.7741 114.711 98.1466 114.085 97.5607 113.381C96.9313 112.84 96.3208 112.276 95.7348 111.688C91.0417 106.992 87.8116 100.848 86.5792 94.341C85.2108 87.4499 86.8949 77.8399 79.3118 74.5419C70.8536 70.8372 60.511 73.0491 53.994 79.3611" fill="#BE0152"/>
<path fill-rule="evenodd" clip-rule="evenodd" d="M86.0197 125.541C87.0363 126.894 87.9635 128.158 88.3842 129.742C92.9171 126.336 95.0188 122.888 94.996 116.938C95.0531 116.121 94.5905 115.488 93.9127 114.996C93.2369 114.501 92.3459 114.147 91.554 113.884C91.1104 113.666 90.6801 113.456 90.2956 113.255C89.8806 112.992 89.4789 112.717 89.1057 112.421C88.7612 112.19 88.4261 111.958 88.0967 111.729C87.7674 111.5 87.4476 111.271 87.1391 111.043C83.9979 108.835 83.1888 105.036 82.9204 101.913C82.4864 94.7536 82.7281 87.0538 79.012 81.6882C73.1693 73.3045 59.843 76.7543 52.3327 83.3309C49.4504 85.6403 47.3867 88.5036 45.7399 91.6439C44.4168 96.744 44.79 102.205 47.5104 107.214C50.1966 112.151 54.4649 113.945 59.1976 114.669C60.7758 114.911 62.4055 115.034 64.0446 115.116C69.4551 115.011 74.0984 115.662 78.0639 117.76C78.5056 117.993 78.9358 118.243 79.3623 118.512C80.6759 119.295 81.8905 120.365 83.0061 121.591C83.5639 122.204 84.0988 122.858 84.6052 123.528C85.1078 124.197 85.5819 124.873 86.0197 125.541" fill="#EB0065"/>
<path fill-rule="evenodd" clip-rule="evenodd" d="M55.9823 107.742C53.1439 106.217 51.7367 102.96 51.1029 100.009C50.5095 95.8962 52.4826 89.4113 57.4905 90.9824C62.0502 92.305 61.7177 97.9181 61.9914 101.973C62.1751 104.674 59.6087 107.048 56.7649 107.594C56.5132 107.644 56.2542 107.694 55.9823 107.742" fill="#BE0152"/>
<path fill-rule="evenodd" clip-rule="evenodd" d="M439.474 151.826C439.117 151.102 438.722 150.396 438.298 149.71C437.873 149.025 437.417 148.359 436.931 147.72C436.718 147.44 436.498 147.166 436.274 146.895C436.226 146.837 436.179 146.778 436.127 146.719C435.903 146.453 435.673 146.188 435.436 145.931C435.417 145.91 435.396 145.887 435.377 145.866C435.143 145.615 434.908 145.369 434.665 145.129C434.633 145.097 434.604 145.064 434.57 145.034C434.31 144.777 434.044 144.525 433.77 144.281C433.755 144.266 433.738 144.251 433.723 144.236C433.153 143.727 432.562 143.249 431.951 142.8C431.945 142.795 431.939 142.791 431.934 142.787C430.346 141.622 428.619 140.673 426.792 139.984C426.775 139.977 426.758 139.971 426.739 139.965C426.485 139.869 426.228 139.78 425.972 139.695C425.945 139.687 425.919 139.678 425.894 139.67C425.062 139.402 424.215 139.188 423.351 139.035C423.305 139.025 423.259 139.019 423.214 139.012C422.982 138.972 422.749 138.936 422.513 138.906C422.445 138.897 422.376 138.887 422.306 138.88C422.088 138.853 421.865 138.83 421.645 138.811C421.577 138.806 421.508 138.798 421.44 138.794C421.182 138.775 420.923 138.76 420.665 138.753C420.637 138.751 420.608 138.749 420.583 138.749C420.291 138.741 420 138.74 419.708 138.745C419.649 138.747 419.59 138.751 419.533 138.751C419.305 138.758 419.079 138.768 418.849 138.783C418.754 138.789 418.659 138.798 418.562 138.806C418.369 138.821 418.171 138.84 417.976 138.862C417.873 138.874 417.77 138.885 417.67 138.898C417.467 138.925 417.265 138.955 417.062 138.987C416.971 139.002 416.88 139.016 416.789 139.033C416.496 139.084 416.205 139.141 415.913 139.207C410.91 140.33 408.27 143.625 406.451 147.591C406.299 147.922 406.152 148.257 406.012 148.596C405.845 148.999 405.685 149.407 405.529 149.82C405.292 150.448 405.066 151.085 404.848 151.728C404.217 154.111 403.467 156.279 402.521 158.219C402.415 158.435 402.31 158.647 402.198 158.859C401.868 159.489 401.516 160.094 401.136 160.673C401.011 160.866 400.884 161.057 400.751 161.244C400.092 162.18 399.359 163.044 398.536 163.837C397.718 164.628 396.808 165.344 395.799 165.986C395.395 166.241 394.975 166.485 394.538 166.718C393.228 167.414 391.765 167.998 390.126 168.469C389.701 168.59 389.275 168.704 388.848 168.81C385.854 169.557 382.772 169.956 379.731 170.476C379.332 170.544 378.981 170.648 378.668 170.784C378.498 170.858 378.339 170.937 378.191 171.03C378.189 171.032 378.185 171.034 378.183 171.036C378.083 171.1 377.986 171.172 377.894 171.246C377.883 171.255 377.872 171.267 377.862 171.278C377.781 171.348 377.701 171.42 377.627 171.497L377.615 171.512C377.452 171.686 377.308 171.883 377.18 172.101C377.18 172.103 377.178 172.103 377.178 172.103C377.061 172.307 376.954 172.528 376.863 172.772C376.861 172.772 376.861 172.774 376.861 172.774C376.818 172.895 376.774 173.018 376.734 173.147C376.694 173.279 376.658 173.417 376.622 173.559C376.548 173.869 376.48 174.181 376.417 174.499C376.356 174.817 376.299 175.138 376.25 175.464C376.153 176.114 376.083 176.776 376.043 177.446C376.001 178.115 375.989 178.793 376.012 179.468C376.024 179.804 376.043 180.143 376.069 180.48C376.124 181.153 376.215 181.824 376.343 182.485C376.438 182.98 376.554 183.468 376.69 183.95C376.783 184.27 376.884 184.588 376.996 184.9C377.053 185.055 377.11 185.21 377.171 185.363C377.256 185.577 377.347 185.787 377.442 185.995C377.528 186.182 377.617 186.368 377.71 186.549C377.838 186.797 377.972 187.041 378.113 187.279C378.422 187.798 378.768 188.293 379.154 188.758C380.204 190.028 381.629 191.367 383.188 192.125C383.33 192.193 383.477 192.258 383.621 192.316C383.761 192.373 383.904 192.426 384.046 192.473C384.117 192.496 384.189 192.519 384.259 192.538C384.55 192.623 384.842 192.681 385.137 192.713C385.383 192.742 385.63 192.749 385.877 192.734C386.014 192.727 386.151 192.715 386.286 192.693C386.489 192.662 386.692 192.615 386.892 192.551C387.304 192.422 387.71 192.224 388.113 191.947C390.401 190.364 391.53 187.633 393.438 185.683C393.532 185.59 393.621 185.496 393.718 185.407C393.942 185.195 394.17 184.987 394.401 184.785C395.091 184.177 395.795 183.61 396.519 183.08C397.835 182.05 399.241 181.136 400.715 180.345C401.134 180.12 401.56 179.905 401.993 179.7C403.068 179.186 404.175 178.738 405.307 178.354C409.374 176.973 413.731 176.441 417.998 176.824C424.445 177.342 432.526 181.24 437.36 175.375C442.767 168.84 443.419 159.159 439.474 151.826" fill="white" fill-opacity="0.136965"/>
<path fill-rule="evenodd" clip-rule="evenodd" d="M148.147 45.4154C147.335 45.7137 146.539 46.0478 145.764 46.4178C144.987 46.7897 144.228 47.1955 143.493 47.6353C143.171 47.8279 142.854 48.0299 142.542 48.2356L142.34 48.3677C142.031 48.5754 141.722 48.7887 141.423 49.0077C141.396 49.0265 141.373 49.0454 141.348 49.0643C141.055 49.2795 140.767 49.5022 140.485 49.7288C140.447 49.7571 140.41 49.7873 140.374 49.8175C140.071 50.061 139.775 50.3139 139.484 50.5707C139.467 50.5876 139.449 50.6046 139.432 50.6197C138.83 51.1577 138.252 51.724 137.71 52.3149C137.704 52.3205 137.698 52.3262 137.694 52.3319C136.28 53.8684 135.08 55.5711 134.149 57.4078C134.14 57.4248 134.13 57.4437 134.121 57.4607C133.994 57.7174 133.871 57.976 133.752 58.2365C133.741 58.2629 133.727 58.2893 133.718 58.3158C133.342 59.1539 133.021 60.0185 132.764 60.9057C132.753 60.951 132.739 60.9963 132.728 61.0435C132.659 61.2813 132.597 61.5229 132.538 61.7646C132.521 61.8363 132.503 61.908 132.488 61.9779C132.436 62.2063 132.386 62.4347 132.344 62.6631C132.331 62.7348 132.315 62.8047 132.302 62.8764C132.254 63.1444 132.212 63.4125 132.175 63.6824C132.172 63.7107 132.166 63.7391 132.162 63.7674C132.122 64.0694 132.089 64.3752 132.064 64.6829C132.058 64.7433 132.057 64.8037 132.051 64.8641C132.035 65.102 132.022 65.3417 132.012 65.5833C132.009 65.6815 132.007 65.7834 132.005 65.8835C132.001 66.0892 131.999 66.2969 132.003 66.5045C132.003 66.6121 132.005 66.7216 132.009 66.8292C132.014 67.0425 132.026 67.2577 132.039 67.4729C132.043 67.5691 132.047 67.6654 132.055 67.7617C132.078 68.0732 132.108 68.3827 132.147 68.6961C132.807 74.0439 136.035 77.1547 140.069 79.4785C140.407 79.6729 140.748 79.8617 141.093 80.0448C141.504 80.2637 141.924 80.4733 142.348 80.679C142.99 80.9943 143.646 81.3001 144.308 81.5964C146.781 82.5101 149.012 83.5237 150.982 84.7186C151.198 84.8527 151.413 84.9867 151.626 85.1245C152.263 85.536 152.871 85.9683 153.449 86.427C153.638 86.578 153.828 86.7347 154.014 86.8913C154.943 87.6804 155.785 88.5393 156.541 89.4812C157.296 90.4232 157.962 91.4501 158.538 92.5732C158.766 93.0225 158.981 93.4869 159.182 93.9682C159.782 95.4104 160.251 97.0036 160.575 98.7667C160.657 99.2235 160.734 99.6803 160.801 100.139C161.273 103.348 161.369 106.612 161.593 109.844C161.622 110.268 161.697 110.646 161.808 110.987C161.868 111.172 161.935 111.35 162.017 111.512C162.019 111.516 162.021 111.518 162.023 111.522C162.084 111.635 162.148 111.743 162.219 111.844C162.226 111.86 162.238 111.871 162.247 111.884C162.313 111.977 162.382 112.067 162.458 112.152C162.462 112.158 162.466 112.162 162.47 112.165C162.641 112.356 162.832 112.528 163.053 112.685V112.685C163.258 112.832 163.485 112.966 163.734 113.088H163.736C163.859 113.149 163.987 113.207 164.12 113.26C164.256 113.317 164.4 113.372 164.547 113.423C164.87 113.534 165.196 113.64 165.529 113.738C165.859 113.836 166.197 113.928 166.538 114.013C167.221 114.185 167.922 114.331 168.631 114.444C169.341 114.557 170.06 114.64 170.783 114.691C171.144 114.714 171.507 114.731 171.869 114.738C172.592 114.751 173.317 114.729 174.035 114.667C174.574 114.619 175.109 114.551 175.637 114.459C175.99 114.395 176.337 114.323 176.682 114.24C176.855 114.198 177.027 114.153 177.198 114.106C177.434 114.04 177.668 113.966 177.9 113.889C178.107 113.821 178.314 113.747 178.518 113.67C178.798 113.564 179.07 113.449 179.341 113.326C179.926 113.056 180.492 112.749 181.033 112.396C182.496 111.433 184.079 110.087 185.055 108.537C185.145 108.396 185.228 108.252 185.306 108.107C185.383 107.965 185.454 107.824 185.519 107.678C185.552 107.607 185.584 107.535 185.611 107.463C185.734 107.169 185.83 106.869 185.895 106.565C185.949 106.31 185.985 106.053 185.995 105.791C186.003 105.649 186.003 105.506 185.995 105.362C185.985 105.147 185.957 104.93 185.911 104.711C185.817 104.269 185.65 103.822 185.396 103.375C183.956 100.811 181.163 99.3424 179.291 97.1376C179.201 97.0319 179.112 96.9281 179.028 96.8167C178.825 96.56 178.629 96.2995 178.437 96.0371C177.862 95.2518 177.334 94.4534 176.849 93.6417C175.888 92.1542 175.065 90.5874 174.384 88.9659C174.188 88.5015 174.002 88.0334 173.832 87.5615C173.402 86.3817 173.043 85.1755 172.754 83.9541C171.72 79.554 171.622 74.9443 172.491 70.5233C173.739 63.8429 178.767 55.8108 173.034 50.1346C166.648 43.7845 156.395 42.0724 148.147 45.4154" fill="white" fill-opacity="0.136965"/>
<path fill-rule="evenodd" clip-rule="evenodd" d="M31.5895 169.468C31.2243 170.24 30.8932 171.03 30.6037 171.832C30.3103 172.632 30.0568 173.449 29.8429 174.272C29.7502 174.632 29.667 174.994 29.5875 175.358C29.5723 175.436 29.5553 175.514 29.5383 175.592C29.4645 175.956 29.3964 176.32 29.3358 176.684C29.332 176.714 29.3282 176.746 29.3226 176.777C29.2639 177.133 29.2166 177.491 29.175 177.85C29.1693 177.897 29.1636 177.942 29.1579 177.99C29.1144 178.375 29.0804 178.76 29.0539 179.146C29.0539 179.169 29.052 179.194 29.0501 179.216C29.0009 180.02 28.9876 180.824 29.0141 181.626C29.016 181.634 29.016 181.639 29.016 181.647C29.0879 183.727 29.4248 185.78 30.0492 187.746C30.053 187.765 30.0606 187.784 30.0662 187.803C30.1533 188.076 30.2479 188.347 30.3463 188.616C30.3558 188.642 30.3671 188.669 30.3747 188.697C30.6945 189.56 31.0729 190.402 31.5101 191.219C31.5328 191.263 31.5555 191.302 31.5782 191.346C31.6974 191.564 31.8204 191.78 31.9472 191.996C31.985 192.059 32.0229 192.121 32.0626 192.184C32.1818 192.383 32.3086 192.58 32.4373 192.775C32.4789 192.838 32.5168 192.899 32.5584 192.959C32.7098 193.183 32.8668 193.407 33.0296 193.627C33.0485 193.649 33.0617 193.674 33.0807 193.697C33.2642 193.943 33.4516 194.186 33.6502 194.425C33.6862 194.47 33.7297 194.518 33.7676 194.563C33.9208 194.747 34.0779 194.929 34.2406 195.109C34.3088 195.183 34.3769 195.257 34.445 195.331C34.5869 195.483 34.7307 195.632 34.8765 195.78C34.9521 195.858 35.0297 195.934 35.1073 196.01C35.2606 196.161 35.4177 196.307 35.5766 196.453C35.6504 196.52 35.7204 196.586 35.7942 196.65C36.027 196.859 36.2635 197.064 36.5095 197.261C40.7085 200.662 45.1668 200.683 49.6458 199.583C50.0186 199.49 50.3933 199.392 50.7661 199.286C51.2089 199.161 51.6536 199.022 52.0964 198.882C52.7719 198.664 53.4493 198.434 54.123 198.192C56.513 197.151 58.8008 196.345 61.0299 195.852C61.2759 195.797 61.5219 195.746 61.7679 195.699C62.5078 195.558 63.2401 195.452 63.9667 195.384C64.2089 195.363 64.4512 195.344 64.6934 195.331C65.9007 195.261 67.0985 195.299 68.2906 195.458C69.4809 195.619 70.6692 195.9 71.8614 196.313C72.3364 196.48 72.8132 196.666 73.292 196.876C74.7244 197.504 76.1664 198.33 77.6272 199.377C78.0038 199.648 78.3785 199.926 78.7456 200.211C81.3191 202.2 83.6655 204.486 86.0801 206.66C86.398 206.949 86.714 207.168 87.03 207.337C87.2022 207.43 87.3725 207.512 87.5447 207.57C87.5485 207.572 87.5523 207.572 87.5561 207.574C87.6772 207.616 87.7964 207.648 87.9194 207.675C87.9346 207.678 87.9516 207.678 87.9667 207.682C88.0784 207.703 88.19 207.722 88.3036 207.732C88.3111 207.732 88.3168 207.732 88.3206 207.732C88.5742 207.752 88.8315 207.741 89.0964 207.705C89.3443 207.669 89.596 207.61 89.859 207.527H89.8609C89.9896 207.485 90.1221 207.438 90.2545 207.385C90.3908 207.333 90.527 207.273 90.6708 207.208C90.9755 207.068 91.2801 206.918 91.5829 206.761C91.8876 206.604 92.1903 206.437 92.4931 206.264C93.0949 205.919 93.6909 205.542 94.2738 205.134C94.8566 204.729 95.4224 204.294 95.9674 203.832C96.2417 203.601 96.5104 203.362 96.7697 203.119C97.2939 202.63 97.7896 202.114 98.2551 201.576C98.6052 201.172 98.9345 200.753 99.2448 200.325C99.4492 200.038 99.646 199.744 99.8314 199.447C99.9242 199.299 100.015 199.147 100.104 198.997C100.225 198.787 100.339 198.573 100.45 198.359C100.549 198.165 100.643 197.97 100.734 197.773C100.857 197.505 100.971 197.234 101.077 196.958C101.304 196.362 101.489 195.75 101.625 195.124C101.991 193.424 102.172 191.365 101.782 189.575C101.746 189.412 101.705 189.249 101.657 189.09C101.614 188.936 101.565 188.785 101.51 188.635C101.485 188.561 101.455 188.489 101.425 188.417C101.306 188.121 101.165 187.839 100.999 187.575C100.859 187.353 100.704 187.143 100.532 186.948C100.437 186.841 100.337 186.735 100.229 186.639C100.072 186.491 99.9014 186.354 99.716 186.227C99.3413 185.973 98.9099 185.767 98.4179 185.617C95.6097 184.762 92.6066 185.624 89.7436 185.323C89.6055 185.308 89.4692 185.294 89.333 185.274C89.0094 185.228 88.6877 185.175 88.3698 185.118C87.4161 184.948 86.4832 184.735 85.573 184.483C83.8548 184.072 82.1782 183.509 80.5641 182.809C80.1023 182.61 79.6463 182.398 79.1922 182.176C78.0662 181.622 76.9687 181 75.9128 180.318C72.1093 177.857 68.8224 174.602 66.3529 170.816C62.5721 165.142 60.5284 155.892 52.507 155.746C43.5507 155.562 35.0979 161.384 31.5895 169.468" fill="white" fill-opacity="0.136965"/>
<path fill-rule="evenodd" clip-rule="evenodd" d="M46.6454 343.713C47.013 344.443 47.4129 345.152 47.8471 345.841C48.2795 346.53 48.7461 347.198 49.2393 347.841C49.4583 348.122 49.6812 348.396 49.9078 348.668C49.9573 348.727 50.0068 348.784 50.0564 348.844C50.2849 349.111 50.5173 349.376 50.7572 349.634C50.7782 349.655 50.7991 349.678 50.8182 349.699C51.0543 349.95 51.2943 350.196 51.54 350.438C51.5724 350.468 51.6047 350.501 51.6352 350.531C51.8999 350.79 52.1704 351.04 52.4465 351.285C52.4637 351.301 52.4789 351.314 52.4961 351.329C53.0712 351.838 53.6692 352.317 54.2863 352.762C54.292 352.768 54.2977 352.772 54.3034 352.776C55.907 353.937 57.6478 354.881 59.4875 355.556L59.5428 355.575C59.798 355.669 60.057 355.757 60.316 355.839C60.3427 355.847 60.3693 355.857 60.396 355.864C61.2302 356.126 62.0834 356.333 62.9518 356.48C62.9976 356.488 63.0414 356.494 63.0871 356.501C63.3213 356.54 63.5556 356.572 63.7917 356.601C63.8603 356.61 63.9289 356.618 63.9993 356.626C64.2203 356.651 64.4412 356.67 64.664 356.687C64.7326 356.693 64.8011 356.699 64.8697 356.702C65.1287 356.718 65.3877 356.731 65.6486 356.737C65.6753 356.737 65.702 356.739 65.7305 356.739C66.0219 356.744 66.3133 356.743 66.6066 356.733C66.6657 356.731 66.7247 356.727 66.7818 356.723C67.0085 356.716 67.2389 356.702 67.4675 356.685C67.5608 356.677 67.6579 356.67 67.7531 356.66C67.9493 356.641 68.1455 356.62 68.3435 356.595C68.4445 356.584 68.5473 356.57 68.6502 356.555C68.852 356.526 69.0539 356.494 69.2558 356.459C69.3491 356.442 69.4386 356.429 69.532 356.411C69.8214 356.356 70.1128 356.295 70.408 356.226C75.4112 355.034 78.0223 351.674 79.803 347.64C79.9516 347.305 80.0944 346.965 80.2334 346.62C80.3972 346.211 80.5515 345.795 80.7038 345.376C80.9343 344.739 81.1552 344.09 81.3666 343.44C81.9761 341.023 82.7036 338.821 83.6292 336.848C83.732 336.628 83.8368 336.412 83.9453 336.197C84.2691 335.556 84.6157 334.94 84.9909 334.351C85.1128 334.154 85.2423 333.96 85.3718 333.769C86.0232 332.814 86.7488 331.932 87.562 331.123C88.3771 330.313 89.2818 329.578 90.2855 328.92C90.6873 328.654 91.1063 328.404 91.5405 328.164C92.8489 327.447 94.3078 326.838 95.9476 326.345C96.3704 326.216 96.797 326.098 97.2255 325.985C100.219 325.2 103.305 324.76 106.348 324.203C106.748 324.131 107.097 324.02 107.409 323.88C107.578 323.804 107.74 323.721 107.885 323.626C107.889 323.624 107.891 323.622 107.893 323.62C107.996 323.553 108.091 323.48 108.182 323.404C108.192 323.394 108.201 323.383 108.215 323.371C108.296 323.3 108.375 323.226 108.447 323.145C108.451 323.141 108.455 323.138 108.458 323.132C108.62 322.952 108.763 322.753 108.889 322.531H108.891C109.007 322.322 109.11 322.097 109.199 321.85C109.201 321.848 109.201 321.848 109.201 321.846C109.245 321.725 109.287 321.599 109.323 321.467C109.363 321.333 109.399 321.194 109.433 321.05C109.504 320.736 109.569 320.419 109.628 320.097C109.687 319.774 109.74 319.448 109.784 319.119C109.875 318.461 109.938 317.789 109.972 317.112C110.007 316.435 110.011 315.75 109.98 315.066C109.965 314.726 109.942 314.383 109.912 314.043C109.849 313.362 109.752 312.684 109.616 312.018C109.517 311.519 109.393 311.025 109.251 310.539C109.155 310.216 109.051 309.896 108.934 309.582C108.877 309.425 108.816 309.269 108.754 309.114C108.666 308.899 108.573 308.687 108.476 308.478C108.388 308.291 108.296 308.105 108.199 307.92C108.072 307.673 107.935 307.428 107.788 307.187C107.472 306.666 107.121 306.169 106.729 305.7C105.663 304.429 104.219 303.09 102.648 302.34C102.505 302.271 102.358 302.21 102.213 302.15C102.071 302.093 101.928 302.041 101.785 301.995C101.713 301.974 101.642 301.953 101.57 301.932C101.278 301.852 100.983 301.794 100.688 301.766C100.44 301.739 100.193 301.735 99.9433 301.752C99.808 301.762 99.6728 301.775 99.5357 301.798C99.3338 301.833 99.1319 301.882 98.9282 301.948C98.5187 302.083 98.1111 302.288 97.7131 302.573C95.4334 304.2 94.3345 306.974 92.4395 308.966C92.3481 309.062 92.2585 309.158 92.1633 309.249C91.9386 309.466 91.7139 309.678 91.4853 309.885C90.8016 310.509 90.0969 311.09 89.3789 311.632C88.0705 312.692 86.6707 313.629 85.2023 314.445C84.7833 314.678 84.3586 314.9 83.9282 315.112C82.854 315.642 81.7494 316.109 80.62 316.509C76.5558 317.95 72.1926 318.536 67.9074 318.193C61.4416 317.74 53.294 313.884 48.5118 319.869C43.1601 326.536 42.6116 336.337 46.6454 343.713" fill="white" fill-opacity="0.136965"/>
<path fill-rule="evenodd" clip-rule="evenodd" d="M453.606 311.581C453.951 310.847 454.26 310.096 454.532 309.335C454.806 308.574 455.043 307.799 455.242 307.017C455.327 306.675 455.403 306.331 455.478 305.985C455.491 305.911 455.509 305.837 455.524 305.763C455.591 305.418 455.654 305.074 455.71 304.728C455.716 304.698 455.719 304.668 455.721 304.639C455.775 304.301 455.817 303.961 455.855 303.621C455.861 303.578 455.867 303.534 455.871 303.488C455.909 303.124 455.94 302.757 455.961 302.393C455.961 302.37 455.961 302.347 455.963 302.324C456.007 301.563 456.013 300.802 455.98 300.042C455.98 300.036 455.978 300.029 455.978 300.021C455.894 298.052 455.557 296.11 454.944 294.252C454.938 294.233 454.93 294.215 454.924 294.197C454.84 293.939 454.75 293.685 454.652 293.43C454.643 293.404 454.633 293.379 454.622 293.352C454.309 292.538 453.944 291.742 453.518 290.971C453.495 290.931 453.474 290.892 453.451 290.852C453.334 290.647 453.216 290.441 453.091 290.238C453.057 290.179 453.018 290.121 452.982 290.062C452.863 289.872 452.742 289.688 452.616 289.503C452.58 289.445 452.539 289.388 452.501 289.331C452.353 289.118 452.202 288.909 452.045 288.7C452.028 288.679 452.012 288.657 451.995 288.636C451.817 288.402 451.635 288.174 451.445 287.95C451.409 287.907 451.367 287.863 451.33 287.819C451.181 287.646 451.03 287.475 450.873 287.306C450.807 287.236 450.742 287.168 450.675 287.098C450.539 286.955 450.399 286.813 450.26 286.674C450.185 286.602 450.112 286.53 450.037 286.458C449.89 286.317 449.735 286.179 449.581 286.042C449.512 285.979 449.445 285.917 449.374 285.856C449.15 285.662 448.922 285.47 448.685 285.282C444.635 282.092 440.368 282.106 436.085 283.182C435.729 283.271 435.37 283.368 435.014 283.471C434.591 283.594 434.169 283.727 433.744 283.864C433.098 284.075 432.451 284.299 431.807 284.532C429.527 285.539 427.341 286.317 425.213 286.801C424.975 286.856 424.74 286.906 424.504 286.951C423.797 287.092 423.096 287.196 422.401 287.267C422.169 287.289 421.937 287.308 421.705 287.324C420.548 287.4 419.402 287.371 418.261 287.229C417.117 287.086 415.975 286.83 414.833 286.446C414.376 286.293 413.918 286.118 413.458 285.924C412.08 285.341 410.695 284.568 409.287 283.587C408.923 283.332 408.565 283.072 408.211 282.806C405.732 280.94 403.467 278.79 401.136 276.747C400.829 276.479 400.527 276.272 400.222 276.113C400.057 276.027 399.892 275.951 399.726 275.896C399.724 275.896 399.72 275.894 399.716 275.894C399.601 275.856 399.484 275.824 399.367 275.801C399.354 275.798 399.337 275.798 399.321 275.794C399.214 275.775 399.109 275.758 399 275.75H398.98C398.739 275.733 398.492 275.742 398.241 275.78C398.003 275.817 397.762 275.874 397.511 275.955L397.509 275.957C397.385 275.997 397.26 276.041 397.132 276.092C397.003 276.143 396.871 276.2 396.737 276.263C396.446 276.399 396.157 276.544 395.865 276.694C395.576 276.846 395.287 277.005 394.998 277.17C394.423 277.503 393.856 277.865 393.3 278.255C392.747 278.644 392.206 279.062 391.687 279.502C391.427 279.724 391.172 279.95 390.923 280.184C390.427 280.651 389.953 281.143 389.513 281.657C389.183 282.043 388.869 282.44 388.578 282.85C388.383 283.123 388.195 283.402 388.02 283.685C387.932 283.828 387.848 283.97 387.764 284.115C387.649 284.316 387.542 284.519 387.436 284.722C387.342 284.906 387.252 285.092 387.168 285.279C387.053 285.535 386.946 285.791 386.848 286.053C386.633 286.619 386.461 287.2 386.337 287.794C385.997 289.41 385.84 291.362 386.227 293.054C386.264 293.21 386.304 293.362 386.35 293.512C386.392 293.658 386.44 293.802 386.494 293.943C386.518 294.013 386.547 294.082 386.578 294.15C386.693 294.427 386.833 294.693 386.994 294.944C387.128 295.153 387.277 295.35 387.446 295.534C387.538 295.637 387.632 295.734 387.735 295.827C387.888 295.963 388.053 296.092 388.231 296.21C388.591 296.449 389.005 296.641 389.476 296.78C392.176 297.57 395.044 296.73 397.789 296.993C397.921 297.006 398.051 297.019 398.182 297.036C398.492 297.08 398.802 297.125 399.107 297.179C400.021 297.332 400.915 297.526 401.789 297.758C403.438 298.134 405.046 298.656 406.599 299.307C407.042 299.493 407.483 299.689 407.916 299.896C409.002 300.412 410.057 300.993 411.073 301.633C414.734 303.937 417.906 306.996 420.301 310.564C423.962 315.913 425.993 324.663 433.677 324.74C442.252 324.847 450.305 319.268 453.606 311.581" fill="white" fill-opacity="0.136965"/>
<path fill-rule="evenodd" clip-rule="evenodd" d="M169.745 440.659C170.49 440.98 171.25 441.268 172.02 441.516C172.792 441.766 173.573 441.978 174.359 442.153C174.703 442.23 175.051 442.296 175.399 442.357C175.473 442.371 175.547 442.384 175.621 442.397C175.967 442.455 176.315 442.508 176.664 442.552C176.691 442.556 176.721 442.558 176.752 442.562C177.092 442.603 177.432 442.638 177.774 442.665L177.907 442.676C178.272 442.703 178.641 442.722 179.006 442.731C179.028 442.733 179.049 442.733 179.072 442.733C179.838 442.754 180.6 442.737 181.356 442.684C181.364 442.684 181.371 442.682 181.377 442.682C183.346 442.539 185.28 442.144 187.12 441.48L187.175 441.461C187.43 441.367 187.682 441.27 187.933 441.167C187.96 441.155 187.986 441.144 188.009 441.134C188.817 440.799 189.602 440.409 190.362 439.965C190.4 439.942 190.438 439.917 190.476 439.894C190.681 439.774 190.88 439.648 191.082 439.518C191.139 439.48 191.198 439.442 191.255 439.404C191.439 439.28 191.624 439.154 191.802 439.024C191.859 438.984 191.916 438.944 191.971 438.904C192.18 438.751 192.386 438.593 192.589 438.431C192.61 438.412 192.631 438.396 192.653 438.379C192.88 438.196 193.102 438.007 193.32 437.811C193.366 437.773 193.406 437.732 193.45 437.692C193.619 437.54 193.784 437.383 193.949 437.223C194.018 437.156 194.086 437.088 194.153 437.021C194.292 436.881 194.428 436.738 194.565 436.593C194.635 436.517 194.704 436.443 194.774 436.364C194.909 436.214 195.044 436.057 195.177 435.901C195.236 435.83 195.297 435.762 195.358 435.689C195.544 435.458 195.73 435.225 195.911 434.983C198.983 430.86 198.845 426.611 197.646 422.379C197.545 422.028 197.436 421.675 197.324 421.322C197.188 420.904 197.043 420.486 196.893 420.068C196.663 419.433 196.422 418.796 196.167 418.16C195.097 415.921 194.252 413.768 193.706 411.662C193.645 411.427 193.588 411.195 193.537 410.962C193.376 410.262 193.25 409.569 193.159 408.876C193.13 408.647 193.104 408.417 193.081 408.186C192.975 407.037 192.969 405.896 193.077 404.753C193.186 403.612 193.41 402.469 193.761 401.319C193.9 400.859 194.062 400.399 194.242 399.936C194.786 398.548 195.519 397.144 196.46 395.713C196.703 395.345 196.952 394.981 197.208 394.62C199.002 392.096 201.087 389.779 203.063 387.398C203.324 387.085 203.519 386.776 203.671 386.469C203.753 386.303 203.823 386.137 203.873 385.969C203.875 385.965 203.875 385.964 203.877 385.96C203.911 385.843 203.937 385.727 203.958 385.609C203.962 385.595 203.962 385.58 203.964 385.565C203.981 385.456 203.992 385.349 203.998 385.242V385.223C204.008 384.983 203.991 384.737 203.945 384.489V384.487C203.903 384.252 203.837 384.014 203.751 383.766C203.751 383.766 203.749 383.766 203.749 383.764C203.706 383.642 203.658 383.519 203.601 383.394C203.546 383.266 203.485 383.136 203.419 383.004C203.276 382.718 203.122 382.434 202.961 382.15C202.803 381.865 202.636 381.583 202.461 381.3C202.111 380.738 201.733 380.182 201.326 379.642C200.922 379.102 200.49 378.576 200.032 378.072C199.802 377.82 199.567 377.574 199.327 377.334C198.845 376.853 198.341 376.397 197.815 375.973C197.419 375.655 197.011 375.353 196.593 375.075C196.312 374.89 196.028 374.712 195.741 374.546C195.597 374.462 195.451 374.382 195.302 374.304C195.101 374.195 194.894 374.094 194.687 373.997C194.499 373.907 194.312 373.825 194.12 373.745C193.862 373.638 193.604 373.539 193.338 373.447C192.766 373.253 192.18 373.096 191.58 372.991C189.955 372.701 187.998 372.602 186.318 373.037C186.162 373.077 186.012 373.123 185.86 373.171C185.716 373.22 185.575 373.272 185.436 373.329C185.368 373.358 185.299 373.386 185.231 373.417C184.955 373.543 184.693 373.688 184.448 373.856C184.245 373.995 184.051 374.151 183.872 374.323C183.773 374.417 183.676 374.516 183.587 374.621C183.454 374.777 183.329 374.945 183.219 375.124C182.99 375.491 182.808 375.909 182.685 376.384C181.974 379.091 182.897 381.922 182.713 384.662C182.704 384.794 182.694 384.926 182.683 385.057C182.648 385.366 182.61 385.675 182.567 385.979C182.439 386.897 182.272 387.791 182.065 388.667C181.736 390.319 181.263 391.937 180.655 393.502C180.482 393.95 180.3 394.393 180.104 394.83C179.617 395.927 179.068 396.994 178.458 398.024C176.263 401.737 173.291 404.986 169.793 407.474C164.55 411.278 155.856 413.555 156.003 421.208C156.145 429.749 161.96 437.601 169.745 440.659" fill="white" fill-opacity="0.136965"/>
<path fill-rule="evenodd" clip-rule="evenodd" d="M342.642 422.756C343.437 422.431 344.217 422.068 344.977 421.669C345.736 421.269 346.476 420.836 347.193 420.368C347.506 420.165 347.813 419.95 348.118 419.733C348.183 419.687 348.248 419.64 348.315 419.592C348.614 419.374 348.912 419.151 349.202 418.919C349.226 418.9 349.251 418.879 349.278 418.86C349.56 418.634 349.837 418.4 350.112 418.162C350.148 418.132 350.184 418.101 350.22 418.071C350.512 417.812 350.796 417.55 351.079 417.28C351.096 417.265 351.111 417.248 351.128 417.23C351.71 416.668 352.263 416.078 352.784 415.466C352.788 415.46 352.793 415.454 352.799 415.449C354.151 413.857 355.288 412.102 356.151 410.223C356.158 410.204 356.168 410.185 356.175 410.166C356.294 409.906 356.408 409.641 356.515 409.375C356.526 409.348 356.538 409.322 356.549 409.293C356.894 408.438 357.182 407.557 357.408 406.656C357.421 406.608 357.43 406.563 357.442 406.515C357.501 406.274 357.554 406.028 357.606 405.783C357.621 405.711 357.635 405.638 357.648 405.564C357.694 405.334 357.732 405.104 357.77 404.872C357.781 404.8 357.791 404.728 357.802 404.655C357.841 404.385 357.873 404.113 357.902 403.84L357.913 403.754C357.942 403.448 357.963 403.14 357.978 402.83C357.982 402.769 357.982 402.708 357.984 402.645C357.995 402.406 358.001 402.164 358.001 401.921C358.001 401.822 357.999 401.719 357.997 401.619C357.995 401.411 357.989 401.202 357.98 400.993C357.974 400.884 357.968 400.776 357.963 400.666C357.949 400.453 357.932 400.236 357.911 400.019C357.902 399.922 357.894 399.825 357.884 399.728C357.852 399.416 357.812 399.105 357.762 398.791C356.927 393.428 353.614 390.403 349.526 388.195C349.186 388.011 348.839 387.832 348.488 387.659C348.074 387.454 347.651 387.256 347.224 387.062C346.573 386.765 345.911 386.48 345.244 386.202C342.756 385.364 340.504 384.417 338.507 383.278C338.285 383.152 338.068 383.023 337.85 382.892C337.204 382.498 336.586 382.082 335.998 381.641C335.802 381.494 335.607 381.344 335.418 381.192C334.47 380.427 333.604 379.591 332.822 378.667C332.038 377.744 331.342 376.733 330.734 375.62C330.49 375.177 330.261 374.715 330.045 374.238C329.4 372.802 328.883 371.216 328.5 369.451C328.401 368.995 328.311 368.537 328.229 368.077C327.653 364.861 327.449 361.579 327.115 358.333C327.073 357.905 326.986 357.529 326.865 357.188C326.799 357.004 326.726 356.827 326.636 356.667C326.635 356.663 326.633 356.66 326.631 356.658C326.57 356.545 326.501 356.439 326.429 356.338C326.419 356.323 326.408 356.314 326.398 356.3C326.329 356.207 326.257 356.12 326.181 356.036C326.175 356.032 326.171 356.028 326.165 356.023C325.992 355.838 325.793 355.671 325.572 355.521C325.57 355.521 325.57 355.521 325.57 355.521C325.36 355.38 325.131 355.251 324.88 355.136H324.878C324.754 355.079 324.626 355.026 324.489 354.975C324.353 354.923 324.21 354.874 324.061 354.826C323.737 354.726 323.409 354.631 323.075 354.541C322.741 354.454 322.404 354.372 322.062 354.296C321.378 354.146 320.678 354.024 319.968 353.933C319.258 353.841 318.541 353.781 317.82 353.756C317.462 353.743 317.099 353.739 316.741 353.744C316.02 353.754 315.3 353.8 314.589 353.887C314.057 353.95 313.527 354.037 313.006 354.15C312.657 354.222 312.313 354.307 311.974 354.402C311.802 354.452 311.634 354.501 311.466 354.555C311.234 354.629 311.003 354.71 310.776 354.796C310.572 354.872 310.368 354.952 310.168 355.038C309.895 355.154 309.626 355.279 309.363 355.41C308.788 355.701 308.237 356.03 307.713 356.403C306.288 357.42 304.762 358.825 303.842 360.419C303.758 360.565 303.68 360.714 303.606 360.862C303.535 361.007 303.47 361.153 303.409 361.299C303.379 361.372 303.352 361.446 303.325 361.52C303.215 361.82 303.131 362.125 303.076 362.433C303.028 362.691 303.003 362.952 303.001 363.214C302.999 363.359 303.003 363.503 303.015 363.648C303.034 363.865 303.068 364.083 303.121 364.3C303.23 364.743 303.411 365.188 303.676 365.629C305.195 368.162 308.02 369.55 309.952 371.707C310.045 371.809 310.139 371.914 310.229 372.021C310.436 372.275 310.641 372.53 310.839 372.787C311.438 373.559 311.989 374.346 312.498 375.147C313.504 376.613 314.373 378.163 315.106 379.773C315.316 380.233 315.512 380.699 315.701 381.169C316.168 382.344 316.565 383.544 316.893 384.765C318.068 389.161 318.32 393.799 317.605 398.279C316.59 405.047 311.859 413.298 317.75 418.824C324.309 425.008 334.558 426.392 342.642 422.756" fill="white" fill-opacity="0.136965"/>
<path fill-rule="evenodd" clip-rule="evenodd" d="M188.404 64.844C81.6817 94.4218 20.6981 219.026 75.4988 318.563C108.304 378.144 176.078 412.916 243.526 409.513C320.595 405.628 397.749 353.464 420.304 278.083C455.059 161.917 348.794 54.6181 234.139 57.8114C218.719 58.2408 203.255 60.7274 188.404 64.844" fill="#EB0065"/>
<path fill-rule="evenodd" clip-rule="evenodd" d="M363.431 104.742C357.733 116.362 371.856 123.096 376.242 132.363C382 144.727 386.447 157.485 389.737 170.556C390.312 172.861 390.841 175.179 391.326 177.506C393.261 186.813 394.428 196.261 394.506 205.868C394.592 210.378 394.479 214.861 394.171 219.328C390.211 277.17 353.331 332.232 296.904 353.069C291.23 355.756 285.42 358.151 279.501 360.255C249.909 370.774 217.622 374.013 186.429 369.947C179.829 369.089 173.26 367.931 166.763 366.539C160.537 365.504 154.439 363.929 148.49 361.863C133.714 356.764 120.32 348.919 108.518 339.106C106.158 337.145 103.862 335.102 101.632 332.989C93.9198 324.978 86.6319 316.436 80.4844 307.107C79.4601 305.552 78.4663 303.973 77.5068 302.367C69.3869 289.062 63.1347 274.325 61.3737 258.624C61.0957 255.693 59.4812 252.887 56.4141 251.832C54.0496 269.535 62.3503 285.962 68.058 302.08C68.7072 303.808 69.3755 305.49 70.0704 307.155C73.5392 315.442 77.7029 323.353 82.9461 330.853C84.9451 333.8 87.0374 336.648 89.223 339.431C104.517 358.899 124.267 375.215 145.43 387.718C149.811 390.008 154.226 392.098 158.709 394.014C172.154 399.762 186.296 403.986 200.729 406.585C209.281 408.125 217.938 409.093 226.612 409.469C234.419 409.911 242.191 409.811 249.892 409.205C257.593 408.598 265.224 407.487 272.748 405.909C282.061 403.857 291.304 401.127 300.369 397.767C318.219 391.111 335.435 382.068 351.119 370.905C356.347 367.184 361.408 363.228 366.26 359.046C408.373 325.747 432.208 270.854 426.035 217.462C425.563 213.348 424.91 209.243 424.076 205.148C420.402 185.989 413.325 167.579 403.412 150.915C402.175 148.832 400.891 146.776 399.564 144.75C389.579 130.836 379.342 116.742 365.562 106.509C364.734 105.908 364.046 105.319 363.431 104.742" fill="#BE0152"/>
<path fill-rule="evenodd" clip-rule="evenodd" d="M343.734 108.647C344.078 108.185 344.552 107.776 345.179 107.409C348.709 105.337 352.361 103.413 355.644 100.957C364.114 94.6233 365.807 86.7888 364.777 76.5921C364.72 74.8442 364.709 73.1038 364.826 71.4072C365.179 66.3174 366.698 61.6289 371.67 58.3498C379.954 52.8815 390.08 54.0418 397.982 59.065C399.564 60.0693 401.056 61.2295 402.426 62.521C409.714 68.9384 412.972 79.8046 409.771 89.1778C406.924 97.579 396.552 96.6204 389.34 98.6917C380.82 101.052 373.179 106.701 368.573 114.342C367.813 115.506 367.116 116.736 366.482 118.035C365.018 121.033 365.001 124.692 363.072 127.492C360.498 131.233 355.38 129.601 352.039 127.669C346.721 124.595 343.789 117.957 343.063 112.059C342.891 110.65 343.063 109.547 343.734 108.647" fill="#302D6D"/>
<path fill-rule="evenodd" clip-rule="evenodd" d="M402.426 62.1888C401.055 60.8909 399.562 59.725 397.981 58.7158C394.89 56.7393 391.454 55.3631 387.923 54.7419C391.376 56.2271 394.573 58.1786 397.257 61.0515C404.841 68.4927 409.639 82.4116 401.309 89.3806C395.979 93.8151 387.84 94.2299 380.331 95.3194C377.064 95.8776 373.13 97.0722 371.076 100.62C365.957 108.998 360.96 124.266 349.498 116.053C347.248 114.562 344.538 112.572 343.072 110.139C342.979 110.687 342.979 111.293 343.062 111.972C343.788 117.899 346.72 124.57 352.037 127.659C355.38 129.601 360.496 131.241 363.072 127.481C364.998 124.667 365.017 120.99 366.479 117.977C367.114 116.672 367.813 115.435 368.572 114.265C373.179 106.587 380.82 100.91 389.34 98.5382C396.551 96.4567 406.925 97.4201 409.772 88.9773C412.971 79.5579 409.715 68.6379 402.426 62.1888" fill="#BE0152"/>
<path fill-rule="evenodd" clip-rule="evenodd" d="M349.467 116.391C361 124.598 366.026 109.339 371.179 100.965C373.244 97.4195 377.203 96.2254 380.488 95.6676C388.042 94.5786 396.231 94.164 401.596 89.7317C409.975 82.7661 405.15 68.854 397.52 61.4165C394.819 58.545 391.6 56.5944 388.126 55.11C382.605 54.1471 376.846 55.0202 371.773 58.3616C366.771 61.6572 365.242 66.3665 364.888 71.479C364.77 73.1831 364.781 74.9312 364.838 76.6869C365.875 86.929 364.171 94.7983 355.649 101.158C352.346 103.625 348.672 105.56 345.12 107.641C344.489 108.009 344.013 108.42 343.666 108.884C343.313 109.354 343.102 109.882 343.001 110.48C344.476 112.912 347.205 114.9 349.467 116.391" fill="#EB0065"/>
<path fill-rule="evenodd" clip-rule="evenodd" d="M370.79 76.5572C369.293 73.3356 370.151 69.5332 371.488 66.5085C373.601 62.4882 379.474 58.0686 382.833 62.7653C385.96 66.9441 382.078 71.679 379.721 75.4375C378.151 77.9425 374.394 78.3418 371.566 76.9431C371.316 76.8228 371.06 76.6947 370.79 76.5572" fill="#BE0152"/>
<mask id="mask0" mask-type="alpha" maskUnits="userSpaceOnUse" x="0" y="235" width="78" height="48">
<path fill-rule="evenodd" clip-rule="evenodd" d="M0.000732422 235.91H77.616V282.863H0.000732422V235.91Z" fill="white"/>
</mask>
<g mask="url(#mask0)">
<path fill-rule="evenodd" clip-rule="evenodd" d="M67.7509 243.345C67.2106 243.35 66.638 243.484 66.0121 243.755C62.4792 245.278 58.9921 246.974 55.3089 248.101C45.8101 251.009 38.9346 247.992 31.7853 241.628C30.4935 240.625 29.1827 239.662 27.832 238.822C23.7817 236.296 19.3871 234.869 14.1402 236.818C5.39846 240.062 0.649967 248.324 0.0621137 257.033C-0.0558375 258.774 -0.00447169 260.532 0.210504 262.272C1.02094 271.28 7.43977 279.691 16.3146 282.416C24.2592 284.88 29.295 276.538 34.8729 272.241C41.3945 267.117 49.9174 264.458 58.2615 265.176C59.5647 265.244 60.885 265.393 62.2205 265.626C65.3044 266.167 68.0857 268.159 71.278 268.242C75.5395 268.353 77.1451 263.604 77.5408 260.029C78.1687 254.338 74.769 248.49 70.7092 244.711C69.737 243.808 68.8048 243.333 67.7509 243.345" fill="#EB0065"/>
</g>
<path fill-rule="evenodd" clip-rule="evenodd" d="M0.210717 261.994C-0.0061613 260.232 -0.0556247 258.449 0.0623265 256.685C0.292522 253.233 1.16384 249.85 2.65725 246.813C1.85823 250.268 1.55194 253.788 2.2254 257.421C3.61799 267.322 11.4408 278.672 21.3221 276.167C27.623 274.55 32.459 268.569 37.451 263.441C39.6882 261.257 42.774 258.914 46.5884 259.308C55.7448 260.029 70.0264 264.653 70.2072 251.37C70.3327 248.829 70.3403 245.66 69.3206 243.197C69.7848 243.43 70.2433 243.766 70.7094 244.205C74.7692 248.033 78.1689 253.956 77.5392 259.72C77.1453 263.343 75.5397 268.154 71.2763 268.04C68.0859 267.958 65.3046 265.94 62.2207 265.392C60.8852 265.153 59.5649 265.004 58.2617 264.936C49.9176 264.208 41.3928 266.902 34.8732 272.093C29.2952 276.446 24.2594 284.893 16.3149 282.4C7.43999 279.638 1.02116 271.119 0.210717 261.994" fill="#BE0152"/>
<path fill-rule="evenodd" clip-rule="evenodd" d="M68.9419 251.733C68.7622 264.943 54.5663 260.345 45.4667 259.627C41.6752 259.236 38.6061 261.565 36.3822 263.737C31.4202 268.836 26.6151 274.784 20.352 276.392C10.53 278.883 2.75412 267.597 1.36989 257.751C0.698577 254.139 1.00303 250.638 1.79915 247.202C4.10999 242.509 7.92418 238.645 13.2134 236.656C18.4288 234.695 22.7971 236.132 26.8231 238.674C28.1638 239.523 29.4667 240.493 30.7526 241.501C37.8591 247.912 44.6914 250.953 54.1352 248.024C57.7962 246.887 61.2624 245.178 64.7722 243.644C65.3943 243.373 65.9654 243.236 66.5025 243.23C67.0471 243.226 67.5614 243.355 68.0626 243.606C69.0762 246.055 69.0686 249.206 68.9419 251.733" fill="#EB0065"/>
<path fill-rule="evenodd" clip-rule="evenodd" d="M28.0007 245.671C26.4555 242.838 23.1871 241.451 20.234 240.835C16.1178 240.267 9.64392 242.291 11.2522 247.301C12.6063 251.86 18.2176 251.488 22.2726 251.734C24.9771 251.9 27.3329 249.31 27.8579 246.456C27.9061 246.205 27.9544 245.944 28.0007 245.671" fill="#BE0152"/>
<mask id="mask1" mask-type="alpha" maskUnits="userSpaceOnUse" x="198" y="0" width="50" height="82">
<path fill-rule="evenodd" clip-rule="evenodd" d="M198.599 0H247.568V81.1015H198.599V0Z" fill="white"/>
</mask>
<g mask="url(#mask1)">
<path fill-rule="evenodd" clip-rule="evenodd" d="M212.468 72.673C212.406 72.1098 212.474 71.497 212.678 70.8097C213.822 66.9457 215.152 63.1008 215.868 59.126C217.71 48.8742 213.722 42.1046 206.222 35.4724C205.022 34.2544 203.857 33.0116 202.816 31.7134C199.688 27.8208 197.663 23.4299 199.036 17.7255C201.324 8.21632 209.319 2.23323 218.293 0.520777C220.088 0.17714 221.922 0.00532225 223.76 0.0110495C233.218 -0.286769 242.753 5.32787 246.687 14.2147C250.231 22.168 242.19 28.4641 238.416 34.81C233.901 42.2421 232.194 51.4458 233.977 60.0367C234.207 61.3845 234.527 62.738 234.935 64.0992C235.879 67.2378 238.293 69.88 238.777 73.1903C239.421 77.6099 234.685 79.8817 231.017 80.7465C225.18 82.1191 218.684 79.3242 214.253 75.5767C213.195 74.6794 212.585 73.7688 212.468 72.673" fill="#EB0065"/>
</g>
<path fill-rule="evenodd" clip-rule="evenodd" d="M221.261 74.2229C235.052 72.3761 228.447 58.1075 226.546 48.6771C225.657 44.7603 227.704 41.2594 229.694 38.6609C234.399 32.8306 240.01 27.0575 240.9 20.3019C242.264 9.71727 229.476 3.00171 219.007 2.78803C215.142 2.54192 211.521 3.30124 208.028 4.56231C203.411 7.56905 199.853 12.0448 198.444 17.8255C197.052 23.528 199.107 27.9161 202.276 31.8061C203.333 33.1034 204.512 34.3454 205.73 35.5626C213.333 42.1904 217.377 48.9556 215.508 59.2006C214.782 63.1727 213.434 67.0132 212.276 70.8766C212.067 71.5615 211.998 72.1758 212.059 72.7386C212.124 73.309 212.323 73.828 212.651 74.3221C215.34 75.0757 218.635 74.6712 221.261 74.2229" fill="#EB0065"/>
<path fill-rule="evenodd" clip-rule="evenodd" d="M210.347 30.7419C207.214 29.4741 205.368 26.2017 204.361 23.1597C203.261 18.8859 204.557 11.7931 209.96 12.8474C214.861 13.6938 215.173 19.6662 215.933 23.9174C216.44 26.7515 214.043 29.5705 211.144 30.4906C210.889 30.5756 210.624 30.6587 210.347 30.7419" fill="#BE0152"/>
<path fill-rule="evenodd" clip-rule="evenodd" d="M119.921 345.255C119.636 345.713 119.443 346.266 119.336 346.937C118.741 350.722 118.314 354.563 117.298 358.264C114.673 367.807 108.383 371.959 99.0753 374.54C97.5199 375.086 95.9874 375.669 94.5392 376.35C90.1944 378.394 86.6053 381.32 85.4459 386.771C83.5194 395.862 88.044 404.292 95.1916 409.469C96.6207 410.504 98.155 411.408 99.764 412.163C107.924 416.328 118.59 415.46 125.706 409.472C132.096 404.125 127.662 395.407 126.981 388.414C126.101 380.18 128.414 371.59 133.524 364.969C134.285 363.909 135.123 362.88 136.043 361.886C138.167 359.587 141.373 358.321 143.162 355.685C145.556 352.164 142.351 348.262 139.497 346.006C134.957 342.419 128.113 342.127 122.686 343.507C121.388 343.838 120.48 344.366 119.921 345.255" fill="#383075"/>
<path fill-rule="evenodd" clip-rule="evenodd" d="M100.369 412.163C98.7825 411.408 97.2692 410.504 95.8597 409.469C93.0991 407.442 90.7405 404.914 89.0007 402.047C91.4575 404.555 94.2331 406.68 97.6258 408.044C106.626 412.129 120.256 411.584 123.414 401.956C125.412 395.803 122.99 388.569 121.363 381.653C120.729 378.616 120.414 374.778 122.769 371.784C128.237 364.477 139.683 354.936 128.692 347.732C126.637 346.277 123.997 344.587 121.401 344.137C121.841 343.87 122.363 343.664 122.976 343.507C128.33 342.127 135.081 342.419 139.559 346.006C142.372 348.26 145.534 352.164 143.174 355.685C141.408 358.319 138.245 359.585 136.151 361.884C135.243 362.88 134.417 363.909 133.666 364.969C128.628 371.59 126.346 380.18 127.214 388.414C127.884 395.407 132.258 404.123 125.958 409.472C118.937 415.46 108.417 416.328 100.369 412.163" fill="#BE0152"/>
<path fill-rule="evenodd" clip-rule="evenodd" d="M123.361 371.675C120.981 374.699 121.299 378.576 121.94 381.645C123.587 388.632 126.036 395.943 124.014 402.158C120.821 411.885 107.045 412.437 97.9445 408.31C94.5149 406.93 90.711 404.783 88.2255 402.251C85.4902 397.745 84.2752 392.406 85.4445 386.816C86.5985 381.308 90.1769 378.352 94.5106 376.288C95.9546 375.6 97.4805 375.011 99.0332 374.458C108.311 371.851 114.583 367.656 117.2 358.015C118.215 354.276 118.638 350.395 119.233 346.571C119.338 345.893 119.531 345.334 119.815 344.872C120.107 344.403 120.494 344.036 120.979 343.742C123.605 344.197 127.272 345.904 129.349 347.374C140.46 354.654 128.889 364.291 123.361 371.675Z" fill="#EB0065"/>
<path fill-rule="evenodd" clip-rule="evenodd" d="M101.065 379.76C97.7693 379.525 94.7871 381.631 92.6429 383.901C89.9099 387.224 88.1319 394.101 93.3451 395.513C98.0317 396.894 100.769 391.716 103.192 388.263C104.808 385.962 103.851 382.409 101.663 380.328C101.474 380.143 101.274 379.954 101.065 379.76" fill="#BE0152"/>
<path fill-rule="evenodd" clip-rule="evenodd" d="M81.1635 218.1C78.3829 214.397 77.5909 209.646 78.1873 205.358C78.3062 204.382 78.4443 203.405 78.6015 202.431C79.6946 195.607 81.6621 188.871 83.9383 182.971C87.7237 173.165 94.7691 157.119 106.313 154.303C114.598 152.282 119.367 155.807 117.654 163.546C114.429 178.125 105.663 193.568 99.0608 207.015C97.5823 210.027 96.075 213.074 93.8487 215.605C93.4038 216.111 92.932 216.594 92.4296 217.039C90.0728 219.329 86.157 220.822 82.9258 218.77C82.3754 218.562 81.7905 218.336 81.1635 218.1" fill="#F43285"/>
<path fill-rule="evenodd" clip-rule="evenodd" d="M306.59 234.278C305.91 226.891 299.962 220.276 292.424 219.787C289.424 219.59 286.273 220.044 283.328 221.062C280.381 222.083 277.644 223.668 275.521 225.726C271.595 229.386 270.2 235.015 271.439 240.398C273.055 247.18 278.628 252.395 285.219 254.024C288.29 254.866 291.565 255.008 294.752 254.233C301.345 252.42 306.81 246.409 306.945 239.417C307.078 237.841 306.98 236.139 306.59 234.278" fill="#EB0065"/>
<path fill-rule="evenodd" clip-rule="evenodd" d="M119.412 140.574C116.662 135.018 118.148 128.657 121.99 123.934C127.034 117.731 137.066 112.344 143.715 118.375C151.558 125.355 143.807 136.698 136.653 141.264C135.38 142.133 133.988 142.912 132.543 143.513C129.649 144.712 126.552 145.193 123.812 144.226C122.441 143.743 121.163 142.895 120.043 141.599C119.846 141.257 119.636 140.913 119.412 140.574" fill="#F43285"/>
<path fill-rule="evenodd" clip-rule="evenodd" d="M233.417 251.678C232.798 247.621 231.794 241.046 236.952 239.882C239.805 239.237 242.751 239.99 244.18 242.655C245.426 244.978 245.651 247.734 246.057 250.288C246.451 252.768 250.37 252.416 249.972 249.919C249.12 244.546 248.202 238.029 242.115 236.211C239.161 235.328 235.451 235.667 232.872 237.436C230.683 238.939 229.534 241.469 229.173 244.029C228.797 246.698 229.096 249.402 229.5 252.047C229.88 254.532 233.799 254.178 233.417 251.678" fill="#81063B"/>
<path fill-rule="evenodd" clip-rule="evenodd" d="M170.076 247.308C169.358 239.921 173.848 232.316 180.999 230.436C183.844 229.685 186.957 229.548 189.979 230.003C192.997 230.457 195.923 231.505 198.344 233.134C202.797 236.003 205.183 241.275 204.99 246.793C204.695 253.759 200.306 259.917 194.277 262.74C191.482 264.142 188.361 264.889 185.153 264.718C178.482 264.161 172.113 259.269 170.689 252.422C170.268 250.899 170.044 249.209 170.076 247.308" fill="#EB0065"/>
<path fill-rule="evenodd" clip-rule="evenodd" d="M178.055 242.742C177.95 241.628 178 240.537 178.181 239.487C178.363 238.437 178.682 237.429 179.116 236.484C180.376 233.807 182.437 231.287 185.28 231.015C192.054 229.783 201.219 232.682 201.947 240.455C202.051 241.567 202.002 242.659 201.819 243.708C200.909 248.958 196.63 253.161 191.132 253.687C184.533 254.319 178.68 249.418 178.055 242.742" fill="#740333"/>
<path fill-rule="evenodd" clip-rule="evenodd" d="M182.002 240.869C181.992 240.457 182.037 240.045 182.136 239.657C182.726 237.379 185.009 236.26 187.182 236.938C189.047 237.519 190.333 239.533 189.925 241.503C189.447 243.803 186.724 245.314 184.549 244.535C183.006 243.984 182.043 242.49 182.002 240.869" fill="white"/>
<path fill-rule="evenodd" clip-rule="evenodd" d="M297.946 231.714C297.842 230.623 297.592 229.58 297.219 228.604C296.845 227.625 296.346 226.714 295.744 225.885C294.009 223.542 291.517 221.497 288.67 221.766C281.789 221.841 273.317 226.338 274.045 233.956C274.149 235.048 274.399 236.091 274.772 237.068C276.641 241.954 281.627 245.204 287.125 244.688C293.727 244.068 298.571 238.26 297.946 231.714" fill="#740333"/>
<path fill-rule="evenodd" clip-rule="evenodd" d="M286.946 230.135C286.88 229.726 286.759 229.331 286.588 228.968C285.59 226.838 283.138 226.17 281.127 227.253C279.402 228.184 278.511 230.412 279.278 232.273C280.172 234.448 283.128 235.414 285.121 234.233C286.536 233.393 287.206 231.74 286.946 230.135" fill="white"/>
<path fill-rule="evenodd" clip-rule="evenodd" d="M181.998 395.426C170.47 389.212 157.401 387.757 145.698 380.781C143.996 379.864 145.805 376.188 146.923 376.622C204.973 398.072 268.306 389.918 319.979 358.758C325.736 355.611 331.349 352.215 336.791 348.578C360.707 333.2 380.537 312.189 391.193 285.309C397.925 268.233 403.057 251.309 410.11 234.742C422.564 261.049 408.881 290.102 395.305 314.564C385.878 331.625 373.616 344.373 359.675 356.273C354.469 360.715 349.048 364.903 343.444 368.807C338.54 372.223 333.494 375.421 328.326 378.384C323.156 381.344 317.866 384.068 312.474 386.539C276.176 404.803 234.749 408.188 195.7 398.291C191.148 397.427 186.567 396.468 181.998 395.426" fill="#F43285"/>
<path fill-rule="evenodd" clip-rule="evenodd" d="M239.045 387.11C239.068 387.653 239.219 388.225 239.506 388.846C241.133 392.35 242.931 395.803 244.165 399.471C247.349 408.932 244.526 415.93 238.362 423.3C237.396 424.627 236.47 425.974 235.666 427.354C233.256 431.499 231.954 435.956 234.054 441.172C237.553 449.862 245.96 454.388 254.691 454.721C256.439 454.79 258.197 454.688 259.934 454.419C268.926 453.34 277.159 446.643 279.633 437.645C281.867 429.59 273.375 424.775 268.914 419.299C263.598 412.897 260.692 404.409 261.172 396.004C261.2 394.69 261.311 393.361 261.507 392.013C261.96 388.898 263.872 386.044 263.864 382.835C263.853 378.548 259.056 377.073 255.463 376.783C249.749 376.318 243.995 379.906 240.331 384.099C239.453 385.102 239.006 386.052 239.045 387.11" fill="#383075"/>
<path fill-rule="evenodd" clip-rule="evenodd" d="M254.461 454.722C251.01 454.592 247.614 453.815 244.543 452.402C248.01 453.106 251.53 453.31 255.133 452.528C264.963 450.841 276.054 442.65 273.27 432.796C271.472 426.51 265.369 421.826 260.111 416.957C257.871 414.775 255.443 411.74 255.727 407.896C256.18 398.674 260.376 384.189 247.125 384.394C244.588 384.34 241.429 384.425 239.001 385.522C239.222 385.048 239.543 384.578 239.966 384.098C243.666 379.906 249.473 376.318 255.239 376.783C258.864 377.073 265.706 378.548 265.718 382.835C265.725 386.044 262.794 388.898 262.339 392.013C262.139 393.361 262.029 394.691 261.998 396.004C261.515 404.41 263.447 412.897 268.814 419.298C273.316 424.775 281.886 429.59 279.629 437.646C277.134 446.644 268.825 453.341 259.751 454.42C257.999 454.689 256.222 454.789 254.461 454.722Z" fill="#BE0152"/>
<path fill-rule="evenodd" clip-rule="evenodd" d="M256.081 408.034C255.798 411.842 258.218 414.848 260.451 417.01C265.692 421.833 271.775 426.472 273.567 432.699C276.34 442.461 265.287 450.575 255.489 452.246C251.898 453.021 248.39 452.818 244.933 452.121C240.175 449.944 236.202 446.235 234.061 440.995C231.948 435.829 233.256 431.415 235.682 427.31C236.488 425.942 237.422 424.608 238.392 423.294C244.594 415.993 246.433 409.061 243.229 399.689C241.988 396.056 240.181 391.635 238.544 388.164C238.254 387.548 239.102 386.982 239.081 386.444C239.06 385.898 239.174 385.381 239.41 384.872C241.83 383.784 244.979 383.701 247.507 383.754C260.715 383.553 256.533 398.899 256.081 408.034Z" fill="#EB0065"/>
<mask id="mask2" mask-type="alpha" maskUnits="userSpaceOnUse" x="397" y="199" width="78" height="49">
<path fill-rule="evenodd" clip-rule="evenodd" d="M397.453 199.86H474.622V247.265H397.453V199.86Z" fill="white"/>
</mask>
<g mask="url(#mask2)">
<path fill-rule="evenodd" clip-rule="evenodd" d="M404.498 216.763C405.031 216.667 405.622 216.692 406.286 216.844C410.048 217.7 413.801 218.737 417.637 219.167C427.532 220.281 433.721 215.957 439.544 208.235C440.625 206.989 441.732 205.775 442.9 204.679C446.405 201.384 450.454 199.126 455.984 200.081C465.199 201.672 471.433 209.041 473.664 217.643C474.107 219.363 474.393 221.133 474.511 222.917C475.422 232.083 470.705 241.716 462.494 246.124C455.149 250.091 448.612 242.699 442.315 239.456C434.93 235.562 426.043 234.516 417.972 236.814C416.702 237.127 415.433 237.526 414.165 238.014C411.233 239.139 408.877 241.658 405.753 242.346C401.582 243.265 399.102 238.817 398.035 235.313C396.34 229.737 398.572 223.243 401.85 218.691C402.633 217.603 403.462 216.952 404.498 216.763" fill="#383075"/>
</g>
<mask id="mask3" mask-type="alpha" maskUnits="userSpaceOnUse" x="397" y="208" width="78" height="40">
<path fill-rule="evenodd" clip-rule="evenodd" d="M397.454 208.696H474.622V247.269H397.454V208.696Z" fill="white"/>
</mask>
<g mask="url(#mask3)">
<path fill-rule="evenodd" clip-rule="evenodd" d="M474.511 223.113C474.393 221.344 474.107 219.59 473.663 217.883C472.791 214.542 471.299 211.391 469.261 208.696C470.696 211.93 471.656 215.323 471.675 219.012C472.156 228.974 466.587 241.567 456.402 240.969C449.901 240.567 444.027 235.612 438.158 231.527C435.551 229.807 432.075 228.09 428.398 229.193C419.528 231.62 406.349 238.835 403.684 225.85C403.084 223.384 402.484 220.281 403.027 217.675C402.612 217.991 402.227 218.405 401.852 218.923C398.572 223.437 396.339 229.879 398.036 235.412C399.101 238.889 401.581 243.3 405.753 242.39C408.876 241.708 411.233 239.209 414.164 238.09C415.433 237.607 416.701 237.212 417.972 236.9C426.042 234.62 434.93 235.658 442.315 239.521C448.612 242.74 455.149 250.073 462.494 246.136C470.705 241.763 475.423 232.207 474.511 223.113" fill="#BE0152"/>
</g>
<path fill-rule="evenodd" clip-rule="evenodd" d="M403.873 226.51C406.54 239.575 419.741 232.315 428.627 229.873C432.308 228.765 435.79 230.492 438.403 232.221C444.281 236.334 450.165 241.319 456.677 241.721C466.876 242.323 472.454 229.655 471.972 219.629C471.955 215.919 470.993 212.505 469.556 209.249C466.382 205.033 461.872 201.928 456.257 200.962C450.718 200.009 446.662 202.263 443.152 205.55C441.982 206.646 440.874 207.858 439.79 209.101C433.958 216.81 427.759 221.124 417.848 220.014C414.006 219.585 410.247 218.55 406.479 217.695C405.813 217.544 405.222 217.519 404.688 217.615C404.148 217.713 403.665 217.939 403.213 218.284C402.669 220.906 403.272 224.028 403.873 226.51" fill="#EB0065"/>
<path fill-rule="evenodd" clip-rule="evenodd" d="M444.001 212.633C444.994 209.503 447.976 207.496 450.795 206.318C454.778 204.971 461.597 205.766 460.959 211.085C460.484 215.907 454.836 216.599 450.852 217.616C448.196 218.293 445.362 216.149 444.292 213.391C444.196 213.149 444.1 212.897 444.001 212.633" fill="#BE0152"/>
<path fill-rule="evenodd" clip-rule="evenodd" d="M268.213 77.9257C265.183 77.4824 262.058 77.8129 259.419 79.2246C255.182 81.4936 252.021 86.2476 255.469 90.6788C261.058 97.8555 272.356 98.9813 278.561 92.3296C282.031 88.61 278.59 82.4192 274.985 80.2998C272.98 79.1215 270.625 78.2796 268.213 77.9257" fill="#EB0065"/>
<path fill-rule="evenodd" clip-rule="evenodd" d="M310.719 91.1306C305.366 89.7092 297.978 92.227 298.001 98.0151C297.93 105.654 307.993 108.157 314.324 105.998C316.164 105.305 317.929 103.827 318.56 101.926C319.631 98.933 318.732 95.3301 316.064 93.5574C314.589 92.4425 312.732 91.584 310.719 91.1306" fill="#EB0065"/>
<path fill-rule="evenodd" clip-rule="evenodd" d="M190.725 144.744C185.218 144.625 178.742 148.834 180.212 154.482C182.061 161.96 192.365 162.02 197.917 158.414C199.513 157.298 200.84 155.438 200.972 153.432C201.252 150.254 199.484 146.949 196.475 145.849C194.776 145.107 192.775 144.711 190.725 144.744" fill="#EB0065"/>
<path fill-rule="evenodd" clip-rule="evenodd" d="M284.541 104.915C280.39 104.004 275.746 106.777 275.075 111.019C274.427 115.522 278.086 119.373 282.766 119.733C286.878 119.884 291.084 118.196 292.617 114.398C293.692 111.425 292.494 107.613 289.204 106.637C287.9 105.751 286.28 105.137 284.541 104.915" fill="#EB0065"/>
<path fill-rule="evenodd" clip-rule="evenodd" d="M170.687 175.81C166.415 175.893 162.604 179.675 163.034 183.955C163.555 188.482 168.101 191.37 172.747 190.625C176.789 189.811 180.451 187.188 180.975 183.138C181.26 179.998 179.119 176.574 175.666 176.394C174.172 175.838 172.439 175.618 170.687 175.81" fill="#EB0065"/>
<path fill-rule="evenodd" clip-rule="evenodd" d="M180.724 330.744C175.217 330.625 168.742 334.834 170.212 340.482C172.059 347.96 182.364 348.02 187.917 344.414C189.515 343.298 190.84 341.438 190.972 339.432C191.252 336.254 189.484 332.949 186.475 331.849C184.776 331.107 182.775 330.711 180.724 330.744" fill="#EB0065"/>
<path fill-rule="evenodd" clip-rule="evenodd" d="M217.687 335.81C213.415 335.895 209.604 339.674 210.034 343.955C210.555 348.481 215.101 351.369 219.747 350.626C223.791 349.81 227.451 347.188 227.975 343.137C228.26 340 226.119 336.574 222.666 336.394C221.172 335.838 219.439 335.618 217.687 335.81" fill="#EB0065"/>
<path fill-rule="evenodd" clip-rule="evenodd" d="M358.541 264.915C354.39 264.004 349.746 266.777 349.075 271.021C348.427 275.522 352.086 279.371 356.766 279.733C360.878 279.882 365.084 278.194 366.617 274.397C367.692 271.425 366.494 267.613 363.204 266.639C361.9 265.751 360.28 265.137 358.541 264.915" fill="#EB0065"/>
<path fill-rule="evenodd" clip-rule="evenodd" d="M342.36 286.858C339.595 286.25 336.499 288.099 336.051 290.927C335.618 293.929 338.057 296.495 341.176 296.736C343.92 296.836 346.723 295.71 347.745 293.178C348.461 291.197 347.663 288.656 345.468 288.005C344.6 287.415 343.521 287.006 342.36 286.858" fill="#EB0065"/>
<path fill-rule="evenodd" clip-rule="evenodd" d="M115.956 320.04C116.455 314.553 112.694 307.789 106.944 308.853C99.3436 310.164 98.5729 320.443 101.798 326.242C102.803 327.915 104.574 329.371 106.569 329.646C109.725 330.152 113.151 328.626 114.458 325.7C115.313 324.057 115.848 322.089 115.956 320.04" fill="#EB0065"/>
<path fill-rule="evenodd" clip-rule="evenodd" d="M96.9906 296.955C97.1926 292.697 93.6694 288.628 89.3605 288.744C84.7994 288.932 81.608 293.244 82.0398 297.923C82.5847 302.005 84.9607 305.84 88.975 306.659C92.0941 307.17 95.6618 305.292 96.0732 301.868C96.7293 300.421 97.0647 298.712 96.9906 296.955" fill="#EB0065"/>
<path fill-rule="evenodd" clip-rule="evenodd" d="M356.797 341.088C357.14 341.506 357.602 341.866 358.205 342.183C361.6 343.967 365.105 345.608 368.287 347.76C376.493 353.312 378.414 360.556 377.883 370.125C377.906 371.759 377.968 373.387 378.15 374.967C378.698 379.704 380.32 384.017 385.117 386.869C393.115 391.62 402.55 390.101 409.743 385.071C411.181 384.064 412.53 382.919 413.757 381.654C420.313 375.348 422.903 365.057 419.504 356.443C416.478 348.716 406.802 350.057 399.955 348.432C391.872 346.592 384.469 341.642 379.829 334.704C379.069 333.65 378.363 332.531 377.713 331.346C376.212 328.607 376.038 325.189 374.115 322.658C371.542 319.274 366.818 321.017 363.77 322.965C358.917 326.064 356.452 332.391 356.026 337.929C355.922 339.254 356.132 340.277 356.797 341.088" fill="#383075"/>
<path fill-rule="evenodd" clip-rule="evenodd" d="M413.759 382.139C412.531 383.414 411.182 384.569 409.744 385.584C406.928 387.568 403.77 389.008 400.486 389.742C403.66 388.201 406.572 386.236 408.967 383.428C415.756 376.129 419.657 362.883 411.559 356.714C406.377 352.789 398.732 352.753 391.651 352.057C388.566 351.674 384.828 350.724 382.755 347.49C377.602 339.864 372.272 325.777 361.881 333.964C359.837 335.459 357.379 337.44 356.11 339.784C356.002 339.275 355.975 338.705 356.025 338.065C356.453 332.483 358.918 326.106 363.768 322.984C366.819 321.02 371.542 319.262 374.113 322.672C376.039 325.226 376.213 328.669 377.713 331.43C378.361 332.624 379.068 333.752 379.83 334.817C384.47 341.81 391.871 346.798 399.956 348.652C406.801 350.29 416.48 348.939 419.504 356.727C422.903 365.412 420.314 375.783 413.759 382.139" fill="#BE0152"/>
<path fill-rule="evenodd" clip-rule="evenodd" d="M361.773 334.186C372.165 326.11 377.496 340.005 382.65 347.527C384.724 350.717 388.463 351.654 391.548 352.031C398.629 352.718 406.274 352.754 411.459 356.623C419.558 362.708 415.656 375.775 408.866 382.974C406.471 385.742 403.558 387.683 400.384 389.2C395.281 390.326 389.882 389.762 385.014 386.889C380.213 384.053 378.591 379.765 378.044 375.055C377.862 373.484 377.799 371.866 377.776 370.241C378.309 360.728 376.386 353.525 368.18 348.006C364.996 345.865 361.493 344.234 358.097 342.46C357.492 342.145 357.03 341.787 356.687 341.372C356.342 340.952 356.122 340.473 356.001 339.926C357.27 337.614 359.728 335.661 361.773 334.186" fill="#EB0065"/>
<path fill-rule="evenodd" clip-rule="evenodd" d="M383.619 370.064C382.294 373.194 383.301 376.776 384.74 379.594C386.984 383.326 392.92 387.269 396.002 382.651C398.878 378.536 394.874 374.204 392.405 370.731C390.757 368.418 387.066 368.206 384.361 369.662C384.121 369.788 383.875 369.922 383.619 370.064" fill="#BE0152"/>
<path fill-rule="evenodd" clip-rule="evenodd" d="M242.712 425.742C239.898 427.37 238.594 430.679 238.058 433.652C237.605 437.785 239.833 444.198 244.843 442.445C249.406 440.957 248.867 435.356 248.999 431.291C249.086 428.583 246.402 426.302 243.508 425.861C243.253 425.82 242.988 425.781 242.712 425.742" fill="#BE0152"/>
</svg>
