<svg width="54" height="54" viewBox="0 0 54 54" fill="none" xmlns="http://www.w3.org/2000/svg">
<path fill-rule="evenodd" clip-rule="evenodd" d="M26.9879 0C26.4926 0 26.0023 0.0973303 25.5698 0.287485C24.3799 0.80824 23.9139 1.90686 24.3959 3.01822L24.5432 3.36277L24.8018 3.98933L24.8461 4.09404C25.1409 4.79392 25.255 5.17354 25.255 5.54565V5.74961C25.255 6.06876 25.0096 6.33383 24.6797 6.36483C22.6723 6.55514 20.7042 7.0409 18.8451 7.80554C18.55 7.92667 18.2192 7.8166 18.0645 7.5489L17.917 7.2933C17.7874 7.06863 17.6982 6.78832 17.6284 6.40176L17.5617 5.96193L17.3975 4.676C17.2602 3.47135 16.3071 2.75302 15.0138 2.8971C14.5445 2.94924 14.072 3.10996 13.6432 3.3576C13.2156 3.60414 12.8402 3.93275 12.5594 4.31362C11.7886 5.3628 11.9349 6.54693 12.9091 7.26729L13.2077 7.49185L13.9526 8.06307C14.4636 8.45555 14.7429 8.72729 14.9156 9.02614L15.0169 9.20055C15.1746 9.47425 15.0935 9.82853 14.822 10.0215C13.1902 11.18 11.7331 12.581 10.4974 14.1893C10.3031 14.4428 9.96053 14.5134 9.69354 14.3591L9.43464 14.2092C9.16689 14.0547 8.92231 13.8165 8.59449 13.4045L7.89983 12.5015C7.82888 12.4084 7.75299 12.3075 7.67507 12.2022C6.95466 11.228 5.77021 11.082 4.72214 11.8532C4.34139 12.1328 4.0124 12.5084 3.76525 12.9371C3.51769 13.3675 3.35697 13.8395 3.30499 14.3083C3.16819 15.5448 3.81898 16.4701 4.92911 16.6683L6.60745 16.8887C7.10254 16.9634 7.43975 17.0593 7.70076 17.2101L7.88144 17.3145C8.15767 17.4738 8.26434 17.8196 8.12575 18.1199C7.27614 19.9675 6.71498 21.9088 6.45083 23.8895C6.40796 24.2075 6.14759 24.4392 5.83795 24.4392H5.54565C5.21075 24.4392 4.86977 24.3467 4.29471 24.1133L3.78016 23.8979L3.5187 23.7922C3.3704 23.7312 3.1989 23.6592 3.01832 23.5809C1.90771 23.0979 0.809599 23.5635 0.287194 24.7546C0.0971492 25.1879 0 25.6773 0 26.1729C0 26.6678 0.0971991 27.1572 0.287223 27.5904C0.809599 28.7815 1.90771 29.247 3.01889 28.7638L3.51603 28.5538L3.98933 28.359L4.09404 28.3147C4.79392 28.0199 5.17354 27.9058 5.54565 27.9058H5.75042C6.06877 27.9058 6.33387 28.1513 6.36484 28.4804C6.55592 30.488 7.04144 32.4551 7.80538 34.3153C7.92704 34.6108 7.81692 34.9414 7.5489 35.0963L7.29322 35.2443C7.07069 35.3727 6.79209 35.4614 6.40768 35.5311L6.09375 35.581L4.96002 35.7296L4.676 35.7633C3.47125 35.9019 2.75412 36.8536 2.89702 38.1464C2.95035 38.6171 3.11092 39.0889 3.35731 39.5163C3.60583 39.9466 3.93392 40.3216 4.31467 40.6013C5.36216 41.372 6.54625 41.2261 7.26771 40.2522L7.59332 39.8209L8.05949 39.2126C8.45355 38.699 8.72601 38.4187 9.02614 38.2453L9.19778 38.1467C9.47571 37.9863 9.82847 38.0669 10.0212 38.3384C11.1806 39.9715 12.5819 41.4284 14.1905 42.6629C14.4433 42.8571 14.5136 43.1991 14.3591 43.4665L14.2087 43.7285C14.0556 43.9928 13.8173 44.2374 13.4075 44.5637L12.3567 45.3698C12.3066 45.4074 12.2549 45.4459 12.2022 45.4849C11.2283 46.2064 11.0828 47.3901 11.8528 48.4382C12.1334 48.8191 12.5087 49.1477 12.9374 49.3953C13.3669 49.6434 13.8399 49.804 14.3097 49.8552C15.545 49.9928 16.4701 49.3416 16.6683 48.2309L16.889 46.5531C16.9634 46.0589 17.0594 45.7216 17.2105 45.4607L17.3153 45.2794C17.4747 45.003 17.8201 44.8963 18.1206 45.0346C19.9652 45.8836 21.9062 46.4446 23.89 46.7099C24.2078 46.7525 24.44 47.0134 24.44 47.3229V47.6152C24.44 47.9501 24.3475 48.291 24.1141 48.8661L23.6629 49.9514C23.6362 50.0142 23.6088 50.0782 23.5809 50.1425C23.0978 51.2533 23.5637 52.3515 24.7557 52.8737C25.1879 53.0633 25.677 53.16 26.1721 53.16C26.6685 53.16 27.1576 53.0634 27.5904 52.8736C28.782 52.3515 29.2479 51.2533 28.7646 50.1419L28.5538 49.6444L28.359 49.1715L28.3147 49.0668C28.0199 48.3669 27.9058 47.9873 27.9058 47.6152V47.4104C27.9058 47.0921 28.152 46.8261 28.4812 46.7952C30.488 46.6049 32.4553 46.1193 34.3156 45.3545C34.6109 45.2334 34.9419 45.3437 35.0962 45.6108L35.2433 45.8666C35.3728 46.0908 35.4617 46.3698 35.5314 46.755L35.5892 47.1263L35.7643 48.4855C35.9014 49.6887 36.8538 50.407 38.147 50.2629C38.6137 50.2121 39.0861 50.0514 39.5164 49.8039C39.9467 49.5548 40.3217 49.226 40.6013 48.8453C41.3721 47.7978 41.2269 46.6145 40.253 45.8931L39.8215 45.5672L39.2123 45.1007C38.6996 44.7077 38.4189 44.4348 38.2455 44.1342L38.146 43.9617C37.9863 43.6855 38.0671 43.3318 38.3378 43.14C39.9715 41.9802 41.4284 40.5789 42.6629 38.9703C42.8571 38.7175 43.1995 38.6469 43.4671 38.8013L43.727 38.9513C43.9935 39.1053 44.2384 39.3438 44.5663 39.7557L45.3711 40.8046C45.4089 40.8548 45.4476 40.9065 45.4868 40.9593C46.2069 41.9326 47.3904 42.0781 48.4387 41.3068C48.8196 41.0262 49.149 40.6505 49.3956 40.2229C49.6429 39.7947 49.8036 39.3222 49.8558 38.8527C49.9936 37.6159 49.3425 36.6911 48.2317 36.4919L46.5473 36.2707C46.0569 36.1962 45.7204 36.1001 45.4597 35.9497L45.2814 35.8462C45.0032 35.6859 44.8963 35.3403 45.0344 35.0406C45.8834 33.1961 46.4445 31.2544 46.7099 29.2708C46.7524 28.9529 47.0135 28.7208 47.3229 28.7208H47.616C47.9503 28.7208 48.2911 28.8133 48.8661 29.0467L49.3806 29.2621L49.7971 29.4327C49.9053 29.4781 50.0219 29.5276 50.1425 29.5799C51.2537 30.0619 52.3514 29.5962 52.8736 28.4054C53.0634 27.9728 53.16 27.4836 53.16 26.9879C53.16 26.4918 53.0632 26.0018 52.8733 25.5698C52.3516 24.3792 51.254 23.9139 50.1426 24.3959L49.9653 24.4721L49.0668 24.8461C48.3669 25.1409 47.9874 25.255 47.616 25.255H47.4112C47.0923 25.255 46.8265 25.0089 46.7951 24.6788C46.606 22.675 46.1204 20.7075 45.3554 18.8447C45.2342 18.5493 45.3441 18.2189 45.6112 18.0648L45.869 17.9153C46.0906 17.7876 46.3696 17.6988 46.7539 17.6292L47.1946 17.5623L48.4855 17.3965C49.6887 17.2596 50.4068 16.3071 50.2638 15.0143C50.2116 14.5436 50.0507 14.0708 49.8028 13.6426C49.5556 13.2145 49.2271 12.8393 48.8469 12.5592C47.7972 11.7889 46.6156 11.9342 45.8935 12.9073L45.5673 13.3393L45.0971 13.9528C44.7057 14.463 44.4335 14.7426 44.1342 14.9153L43.9612 15.0156C43.6862 15.174 43.3316 15.0931 43.1397 14.8226C41.9817 13.1906 40.5809 11.734 38.9715 10.4974C38.7175 10.3026 38.6469 9.96052 38.8013 9.69288L38.9507 9.43615C39.1057 9.16691 39.3443 8.92169 39.7552 8.59481L40.303 8.17616L40.6592 7.89985C40.7524 7.82888 40.8533 7.75299 40.9586 7.67507C41.9328 6.95336 42.0788 5.76909 41.3074 4.72183C41.028 4.34151 40.6527 4.01266 40.2234 3.76473C39.7932 3.51666 39.3204 3.35584 38.8509 3.30481C37.6167 3.16719 36.6912 3.8182 36.492 4.92833L36.2802 6.55108L36.2716 6.6087C36.1968 7.10262 36.1007 7.44015 35.9501 7.70176L35.847 7.87938C35.6869 8.15737 35.3409 8.26423 35.0396 8.12591C33.1947 7.27676 31.2535 6.71523 29.2716 6.45007C28.9526 6.40749 28.7208 6.14709 28.7208 5.83795V5.54565C28.7208 5.21075 28.8133 4.86977 29.0467 4.29471L29.2621 3.78016L29.4327 3.36368C29.4781 3.25546 29.5276 3.13891 29.5799 3.01832C30.0629 1.90756 29.5964 0.808409 28.4048 0.286955C27.9734 0.0972349 27.4838 0 26.9879 0ZM26.9879 1.5C27.2812 1.5 27.5653 1.55642 27.8022 1.6606C28.2536 1.85814 28.35 2.0852 28.2041 2.42074L28.0847 2.69989L27.7474 3.51173C27.3777 4.3894 27.2208 4.91118 27.2208 5.54565V5.83795C27.2208 6.90416 28.0142 7.79553 29.0729 7.93685C30.9068 8.1822 32.7035 8.70197 34.4131 9.48882C35.4138 9.94823 36.5968 9.58289 37.1456 8.63022L37.2488 8.45243C37.4794 8.05177 37.617 7.61974 37.715 7.07436L37.7732 6.70781L37.9596 5.25267C38.0014 4.88977 38.1983 4.74134 38.6868 4.7958C38.9448 4.82386 39.2192 4.91716 39.4737 5.06393C39.7274 5.21047 39.9455 5.40151 40.0991 5.61063C40.3909 6.00685 40.3608 6.25113 40.066 6.46954L39.0052 7.27757C38.3467 7.78217 37.95 8.16802 37.6525 8.68466L37.5033 8.94096C36.9694 9.86694 37.2109 11.0373 38.058 11.6872C39.5482 12.8321 40.8448 14.1804 41.9163 15.6906C42.5526 16.5873 43.7595 16.8629 44.7116 16.3144L44.8851 16.2139C45.3418 15.9503 45.697 15.6083 46.1235 15.0751L46.3281 14.8123L46.7354 14.2805C46.8551 14.1254 46.9783 13.9629 47.0986 13.8004C47.3171 13.5059 47.5608 13.476 47.9584 13.7677C48.1663 13.9209 48.3575 14.1393 48.5043 14.3934C48.6509 14.6467 48.7442 14.9211 48.7729 15.1794C48.827 15.6683 48.6788 15.8648 48.3149 15.9062L46.7303 16.1129C46.0709 16.2128 45.5725 16.3549 45.1182 16.6168L44.8603 16.7663C43.9396 17.2972 43.5631 18.4287 43.9678 19.4144C44.6766 21.1404 45.1266 22.9633 45.3018 24.8204C45.406 25.9151 46.313 26.755 47.4112 26.755H47.616C48.1865 26.755 48.6659 26.628 49.396 26.333L50.1856 26.0058C50.3664 25.9314 50.5541 25.8524 50.7395 25.772C51.076 25.6261 51.3023 25.722 51.4998 26.1727C51.6038 26.4092 51.66 26.6938 51.66 26.9879C51.66 27.2818 51.6039 27.5659 51.4999 27.8028C51.3023 28.2534 51.0756 28.3496 50.7394 28.2038L50.4608 28.0847L49.6491 27.7475C48.7713 27.3777 48.2499 27.2208 47.616 27.2208H47.3229C46.2568 27.2208 45.3646 28.014 45.2232 29.072C44.9776 30.9077 44.4581 32.7051 43.672 34.4131C43.2115 35.4122 43.5776 36.5958 44.5306 37.1448L44.7084 37.248C45.1076 37.4784 45.5392 37.6162 46.0824 37.714L46.5143 37.7814L47.067 37.8514L47.4447 37.9033L47.9072 37.9596C48.2714 38.0015 48.4195 38.1978 48.365 38.6868C48.3363 38.9448 48.2429 39.2195 48.0964 39.4732C47.9507 39.7259 47.7591 39.9444 47.5494 40.0989C47.1531 40.3904 46.9097 40.3605 46.6915 40.0656L46.3474 39.6109L45.8835 39.0054C45.3778 38.3463 44.9929 37.9503 44.4771 37.6523L44.2167 37.502C43.2934 36.9696 42.1232 37.2107 41.4732 38.0568C40.3298 39.5466 38.9814 40.8435 37.4701 41.9165C36.5726 42.5524 36.2968 43.7601 36.847 44.7118L36.9462 44.8838C37.2112 45.3431 37.5543 45.6991 38.0898 46.1271L38.8803 46.7354C39.0354 46.8551 39.1979 46.9783 39.3604 47.0986C39.6547 47.3166 39.6846 47.5603 39.3928 47.9568C39.2389 48.1663 39.0207 48.3576 38.7667 48.5047C38.5128 48.6507 38.2382 48.7441 37.9828 48.7719C37.533 48.822 37.3307 48.7019 37.2682 48.4013L37.0575 46.7965L37.0479 46.732C36.9477 46.0706 36.8057 45.5725 36.5428 45.1176L36.3959 44.8619C35.8631 43.9393 34.7319 43.5626 33.7459 43.9669C32.022 44.6756 30.1992 45.1256 28.3401 45.3018C27.2464 45.4047 26.4058 46.3124 26.4058 47.4104V47.6152C26.4058 48.1862 26.5329 48.6659 26.8278 49.396L27.1546 50.1852C27.229 50.3665 27.3083 50.5547 27.3893 50.7406C27.5351 51.0759 27.4391 51.3022 26.9881 51.4998C26.7508 51.6039 26.4667 51.66 26.1721 51.66C25.8789 51.66 25.5948 51.6039 25.358 51.4999C24.9067 51.3022 24.8107 51.0759 24.9567 50.7401L25.1251 50.3442L25.4134 49.6491C25.7831 48.7714 25.94 48.2496 25.94 47.6152V47.3229C25.94 46.2565 25.1465 45.3647 24.0889 45.2232C22.2528 44.9776 20.4563 44.4584 18.7477 43.672C17.748 43.2118 16.5654 43.5773 16.0162 44.5294L15.9121 44.7096C15.6811 45.1085 15.5432 45.5413 15.4453 46.0882L15.3787 46.5182L15.3093 47.0672L15.2314 47.6483L15.2005 47.906C15.1589 48.2707 14.9628 48.4186 14.474 48.3642C14.2155 48.336 13.9414 48.2429 13.6876 48.0964C13.4335 47.9496 13.2151 47.7584 13.0611 47.5494C12.7702 47.1534 12.8003 46.9087 13.0948 46.6905L14.1589 45.8801C14.8144 45.3771 15.2103 44.9921 15.5081 44.4778L15.6589 44.2152C16.1912 43.2941 15.9504 42.1235 15.104 41.4732C13.6142 40.3298 12.3173 38.9814 11.2443 37.4701C10.6071 36.5725 9.40155 36.297 8.44937 36.8468L8.27753 36.9454C7.8175 37.2112 7.46223 37.5536 7.03383 38.0893L6.4249 38.88C6.30546 39.0348 6.18242 39.1972 6.06218 39.3596C5.84395 39.6542 5.59943 39.6843 5.20316 39.3928C4.99428 39.2393 4.80382 39.0216 4.65652 38.7666C4.51076 38.5138 4.41704 38.2384 4.38772 37.9796C4.33382 37.4919 4.48182 37.2955 4.84599 37.2536L5.30927 37.1973L6.43147 37.0475C7.09135 36.9473 7.58909 36.8054 8.04368 36.5431L8.29981 36.3949C9.22169 35.862 9.59854 34.7304 9.19265 33.7448C8.48514 32.022 8.03519 30.199 7.85816 28.339C7.75527 27.2456 6.84836 26.4058 5.75042 26.4058H5.54565C4.97463 26.4058 4.49488 26.5329 3.76482 26.8278L2.97605 27.1543C2.79496 27.2285 2.60697 27.3074 2.42131 27.388C2.08489 27.5343 1.85844 27.4383 1.66089 26.9878C1.55646 26.7498 1.5 26.4655 1.5 26.1729C1.5 25.8795 1.55643 25.5952 1.66086 25.3572C1.85844 24.9067 2.08489 24.8107 2.42074 24.9567L2.70032 25.0761L3.51173 25.4125C4.3894 25.7823 4.91118 25.9392 5.54565 25.9392H5.83795C6.90419 25.9392 7.79491 25.1467 7.93753 24.0889C8.18208 22.2551 8.7015 20.4582 9.48813 18.7475C9.94911 17.7487 9.58386 16.5648 8.63139 16.0154L8.45118 15.9113C8.05202 15.6807 7.61985 15.5431 7.07296 15.4452L6.76735 15.3959L5.49891 15.2297L5.25384 15.2005C4.88989 15.159 4.74177 14.9624 4.79587 14.4734C4.82436 14.2164 4.91804 13.9413 5.06512 13.6856C5.21065 13.4332 5.40156 13.2153 5.61063 13.0617C6.00729 12.7699 6.2515 12.8 6.46916 13.0943L7.27713 14.1545C7.78299 14.8142 8.16757 15.2099 8.68403 15.5079L8.94246 15.6575C9.86605 16.1913 11.0378 15.9496 11.6873 15.1027C12.8313 13.6137 14.1801 12.3168 15.6908 11.2443C16.5875 10.6068 16.8636 9.40109 16.3152 8.4492L16.2133 8.27397C15.9502 7.81855 15.6089 7.46437 15.0755 7.03734L14.2811 6.42504C14.1264 6.3056 13.9643 6.18246 13.802 6.06201C13.5066 5.84353 13.4764 5.59904 13.7675 5.20274C13.9215 4.99386 14.1399 4.8027 14.3929 4.6568C14.6472 4.50997 14.9218 4.41654 15.1796 4.3879C15.6689 4.33338 15.8656 4.48161 15.9071 4.8452L15.9635 5.30914L16.1118 6.42338C16.2119 7.0863 16.3543 7.5863 16.6177 8.04287L16.7654 8.29893C17.2985 9.22131 18.4297 9.59761 19.4152 9.19296C21.1376 8.48456 22.9611 8.03449 24.8207 7.85819C25.9151 7.75532 26.755 6.84839 26.755 5.74961V5.54565C26.755 4.97463 26.6279 4.49488 26.333 3.76482L26.0062 2.97563C25.9318 2.79431 25.8525 2.6061 25.7715 2.42018C25.6262 2.08513 25.7225 1.858 26.1724 1.66113C26.4103 1.55654 26.6951 1.5 26.9879 1.5ZM20.28 13.23C17.4304 13.23 15.12 15.5401 15.12 18.39C15.12 21.2394 17.4306 23.55 20.28 23.55C23.1294 23.55 25.44 21.2394 25.44 18.39C25.44 15.5401 23.1296 13.23 20.28 13.23ZM20.28 14.73C22.3012 14.73 23.94 16.3686 23.94 18.39C23.94 20.4109 22.3009 22.05 20.28 22.05C18.2591 22.05 16.62 20.4109 16.62 18.39C16.62 16.3686 18.2588 14.73 20.28 14.73ZM33.8254 32.76C31.8455 32.76 30.24 34.3651 30.24 36.345C30.24 38.3249 31.8455 39.93 33.8254 39.93C35.8052 39.93 37.41 38.325 37.41 36.345C37.41 34.365 35.8052 32.76 33.8254 32.76ZM33.8254 34.26C34.9767 34.26 35.91 35.1934 35.91 36.345C35.91 37.4966 34.9767 38.43 33.8254 38.43C32.6738 38.43 31.74 37.4964 31.74 36.345C31.74 35.1936 32.6738 34.26 33.8254 34.26ZM12.6 30.045C12.6 28.065 14.205 26.46 16.185 26.46C18.165 26.46 19.77 28.065 19.77 30.045C19.77 32.025 18.165 33.63 16.185 33.63C14.205 33.63 12.6 32.025 12.6 30.045ZM18.27 30.045C18.27 28.8934 17.3366 27.96 16.185 27.96C15.0334 27.96 14.1 28.8934 14.1 30.045C14.1 31.1966 15.0334 32.13 16.185 32.13C17.3366 32.13 18.27 31.1966 18.27 30.045ZM27.5246 26.46C25.5448 26.46 23.94 28.065 23.94 30.045C23.94 32.025 25.5448 33.63 27.5246 33.63C29.5045 33.63 31.11 32.0249 31.11 30.045C31.11 28.0651 29.5045 26.46 27.5246 26.46ZM27.5246 27.96C28.6762 27.96 29.61 28.8936 29.61 30.045C29.61 31.1964 28.6762 32.13 27.5246 32.13C26.3733 32.13 25.44 31.1966 25.44 30.045C25.44 28.8934 26.3733 27.96 27.5246 27.96ZM35.91 28.155C35.91 26.5233 37.2329 25.2 38.865 25.2C40.4971 25.2 41.82 26.5233 41.82 28.155C41.82 29.7867 40.4971 31.11 38.865 31.11C37.2329 31.11 35.91 29.7867 35.91 28.155ZM40.32 28.155C40.32 27.3516 39.6685 26.7 38.865 26.7C38.0615 26.7 37.41 27.3516 37.41 28.155C37.41 28.9584 38.0615 29.61 38.865 29.61C39.6685 29.61 40.32 28.9584 40.32 28.155ZM26.265 37.8C24.9809 37.8 23.94 38.8405 23.94 40.1246C23.94 41.4088 24.981 42.45 26.265 42.45C27.549 42.45 28.59 41.4088 28.59 40.1246C28.59 38.8405 27.5491 37.8 26.265 37.8ZM26.265 39.3C26.7208 39.3 27.09 39.669 27.09 40.1246C27.09 40.5804 26.7205 40.95 26.265 40.95C25.8095 40.95 25.44 40.5804 25.44 40.1246C25.44 39.669 25.8092 39.3 26.265 39.3ZM30.87 19.3346C30.87 18.0504 31.9104 17.01 33.1946 17.01C34.4789 17.01 35.52 18.0504 35.52 19.3346C35.52 20.6188 34.4788 21.66 33.1946 21.66C31.9104 21.66 30.87 20.6189 30.87 19.3346ZM34.02 19.3346C34.02 18.8791 33.6507 18.51 33.1946 18.51C32.7388 18.51 32.37 18.8788 32.37 19.3346C32.37 19.7907 32.7391 20.16 33.1946 20.16C33.6504 20.16 34.02 19.7904 34.02 19.3346Z" fill="white"/>
</svg>
