<svg width="51" height="51" viewBox="0 0 51 51" fill="none" xmlns="http://www.w3.org/2000/svg">
<path fill-rule="evenodd" clip-rule="evenodd" d="M50.2556 25.7531C50.2556 32.5341 47.4945 38.6858 43.0381 43.1219C38.602 47.5376 32.5011 50.2582 25.7495 50.2582C19 50.2582 12.8991 47.5376 8.47314 43.1219C4.01675 38.6858 1.25562 32.5341 1.25562 25.7531C1.25562 18.9315 4.03705 12.7595 8.5442 8.33359C12.96 3.95841 19.0304 1.25818 25.7495 1.25818C32.4707 1.25818 38.5411 3.95841 42.967 8.33359C47.464 12.7595 50.2556 18.9315 50.2556 25.7531Z" fill="#7ADB00" fill-opacity="0.1"/>
<path fill-rule="evenodd" clip-rule="evenodd" d="M50.2556 25.6255C50.2556 32.4418 47.4801 38.6255 43.0005 43.0847C38.5413 47.5235 32.4087 50.2582 25.6219 50.2582C18.8372 50.2582 12.7046 47.5235 8.25559 43.0847C3.776 38.6255 1.00049 32.4418 1.00049 25.6255C1.00049 18.7684 3.79641 12.5643 8.32702 8.1153C12.7658 3.71734 18.8678 1.00305 25.6219 1.00305C32.378 1.00305 38.4801 3.71734 42.9291 8.1153C47.4495 12.5643 50.2556 18.7684 50.2556 25.6255Z" stroke="#7ADB00"/>
<path fill-rule="evenodd" clip-rule="evenodd" d="M39.2862 25.6286C39.2862 39.2306 33.1709 50.2571 25.626 50.2571C18.0811 50.2571 11.9658 39.2306 11.9658 25.6286C11.9658 12.0265 18.0811 1 25.626 1C33.1709 1 39.2862 12.0265 39.2862 25.6286Z" stroke="#7ADB00"/>
<path fill-rule="evenodd" clip-rule="evenodd" d="M42.9294 8.11517C41.3875 10.0642 39.51 11.7376 37.3681 13.054C33.9794 15.156 29.9488 16.3703 25.6222 16.3703C21.2967 16.3703 17.2753 15.156 13.8875 13.054C11.7447 11.7376 9.86815 10.0642 8.32733 8.11517C12.7651 3.71722 18.8681 1.00293 25.6222 1.00293C32.3784 1.00293 38.4804 3.71722 42.9294 8.11517Z" stroke="#7ADB00"/>
<path fill-rule="evenodd" clip-rule="evenodd" d="M43.0002 43.0846C38.541 47.5234 32.4084 50.2581 25.6227 50.2581C18.8369 50.2581 12.7053 47.5234 8.25531 43.0846C9.79613 41.105 11.6941 39.4111 13.8482 38.0744C17.2461 35.9622 21.2859 34.7377 25.6227 34.7377C29.9696 34.7377 34.0104 35.9622 37.4094 38.0744C39.5614 39.4213 41.4594 41.1152 43.0002 43.0846Z" stroke="#7ADB00"/>
<path d="M1 25.6256H11.9694H25.6235H39.2867H50.2561" stroke="#7ADB00"/>
<path d="M25.6234 1.0033V16.3706V25.6257V34.738V50.2584" stroke="#7ADB00"/>
</svg>
